<?xml version="1.0" standalone="no"?>
<!DOCTYPE svg PUBLIC "-//W3C//DTD SVG 1.1//EN" "http://www.w3.org/Graphics/SVG/1.1/DTD/svg11.dtd" >
<svg>
<metadata>
Created by FontForge 20120731 at Fri Jul  5 06:47:02 2019
 By www-data
HTF Gotham  Copr. 2000 The Hoefler Type Foundry, Inc. Info: www.typography.com
</metadata>
<defs>
<font id="GothamNVV-Book" horiz-adv-x="790" >
  <font-face 
    font-family="Arial"
    font-weight="400"
    font-stretch="normal"
    units-per-em="1000"
    panose-1="2 0 6 3 4 0 0 2 0 4"
    ascent="800"
    descent="-200"
    x-height="517"
    cap-height="700"
    bbox="-68 -164.69 1158 943"
    underline-thickness="20"
    underline-position="-113"
    unicode-range="U+0020-FB02"
  />
<missing-glyph horiz-adv-x="300" 
 />
    <glyph glyph-name="fi" unicode="fi" horiz-adv-x="631" 
d="M461 0v517h76v-517h-76zM115 0v449h-71v67h71v45c0 59 15 103 45 133c27 27 64 40 111 40c36 0 60 -4 85 -13v-67c-28 8 -48 13 -75 13c-60 0 -90 -37 -90 -110v-42h164v-66h-163v-449h-77zM455 630v85h88v-85h-88z" />
    <glyph glyph-name="fl" unicode="fl" horiz-adv-x="631" 
d="M461 0v730h76v-730h-76zM115 0v449h-71v67h71v45c0 59 15 103 45 133c27 27 64 40 111 40c36 0 60 -4 85 -13v-67c-28 8 -48 13 -75 13c-60 0 -90 -37 -90 -110v-42h164v-66h-163v-449h-77z" />
    <glyph glyph-name=".notdef" horiz-adv-x="300" 
 />
    <glyph glyph-name="exclam" unicode="!" horiz-adv-x="271" 
d="M90 0v105h92v-105h-92zM114 198l-23 445v57h90v-57l-24 -445h-43z" />
    <glyph glyph-name="quotedbl" unicode="&#x22;" horiz-adv-x="440" 
d="M65 428l30 272h93v-5l-81 -267h-42zM260 428l31 272h92v-5l-81 -267h-42z" />
    <glyph glyph-name="numbersign" unicode="#" horiz-adv-x="700" 
d="M237 246h190l36 212h-190zM124 0l30 177h-109v69h121l37 212h-119v69h130l30 173h70l-29 -173h190l30 173h70l-29 -173h108v-69h-120l-37 -212h118v-69h-129l-31 -177h-70l30 177h-190l-31 -177h-70z" />
    <glyph glyph-name="dollar" unicode="$" horiz-adv-x="636" 
d="M353 306v-239c85 4 139 51 139 116v2c0 59 -28 95 -139 121zM295 398v235c-84 -3 -136 -51 -136 -112v-2c0 -55 27 -94 136 -121zM292 -98v100c-89 8 -165 43 -236 103l45 60c60 -55 118 -87 194 -95v250c-148 35 -213 90 -213 194v2c0 103 87 179 210 184v58h64v-60
c76 -7 132 -35 191 -80l-43 -60c-48 41 -98 63 -151 72v-246c152 -35 216 -93 216 -194v-2c0 -108 -87 -180 -213 -188v-98h-64z" />
    <glyph glyph-name="percent" unicode="%" horiz-adv-x="834" 
d="M624 48c55 0 91 54 91 121v2c0 69 -41 123 -93 123c-54 0 -91 -54 -91 -121v-2c0 -69 41 -123 93 -123zM212 406c54 0 91 54 91 121v2c0 69 -42 123 -93 123c-55 0 -91 -54 -91 -121v-2c0 -69 41 -123 93 -123zM622 -8c-93 0 -157 84 -157 177v2c0 95 64 179 159 179
c96 0 157 -84 157 -177v-2c0 -95 -63 -179 -159 -179zM124 0l514 700h71l-513 -700h-72zM210 350c-95 0 -158 84 -158 177v2c0 95 64 179 160 179c93 0 157 -84 157 -177v-2c0 -95 -64 -179 -159 -179z" />
    <glyph glyph-name="ampersand" unicode="&#x26;" horiz-adv-x="696" 
d="M271 57c67 0 124 35 175 91l-187 193c-93 -35 -134 -90 -134 -150v-2c0 -75 60 -132 146 -132zM290 415c89 31 135 73 135 133v2c0 56 -42 97 -99 97c-64 0 -106 -44 -106 -101v-2c0 -41 17 -73 70 -129zM604 -14l-110 113c-64 -69 -137 -109 -229 -109
c-126 0 -220 79 -220 196v2c0 93 61 159 169 202c-48 56 -70 98 -70 154v2c0 92 74 166 185 166c98 0 170 -71 170 -158v-2c0 -89 -62 -146 -165 -182l160 -163c31 45 59 97 84 156l65 -30c-31 -67 -62 -125 -101 -176l122 -125z" />
    <glyph glyph-name="quotesingle" unicode="'" horiz-adv-x="245" 
d="M65 428l30 272h94v-5l-81 -267h-43z" />
    <glyph glyph-name="parenleft" unicode="(" horiz-adv-x="434" 
d="M378 -90l-33 -51c-179 100 -277 243 -277 428s98 328 277 428l33 -51c-153 -97 -232 -216 -232 -377s79 -280 232 -377z" />
    <glyph glyph-name="parenright" unicode=")" horiz-adv-x="434" 
d="M89 -141l-33 51c153 97 232 216 232 377s-79 280 -232 377l33 51c179 -100 277 -243 277 -428s-98 -328 -277 -428z" />
    <glyph glyph-name="asterisk" unicode="*" horiz-adv-x="430" 
d="M189 397l10 125l-103 -73l-27 47l116 53l-116 54l27 46l103 -72l-10 125h52l-10 -125l103 72l27 -46l-116 -54l116 -53l-27 -47l-103 73l10 -125h-52z" />
    <glyph glyph-name="plus" unicode="+" horiz-adv-x="640" 
d="M283 110v206h-208v72h208v206h74v-206h208v-72h-208v-206h-74z" />
    <glyph glyph-name="comma" unicode="," horiz-adv-x="245" 
d="M58 -122l-12 35c51 19 71 44 67 87h-36v105h92v-90c0 -81 -35 -120 -111 -137z" />
    <glyph glyph-name="hyphen" unicode="-" horiz-adv-x="408" 
d="M65 260v81h278v-81h-278z" />
    <glyph glyph-name="hyphen" unicode="&#xad;" horiz-adv-x="408" 
d="M65 260v81h278v-81h-278z" />
    <glyph glyph-name="period" unicode="." horiz-adv-x="245" 
d="M77 0v105h92v-105h-92z" />
    <glyph glyph-name="slash" unicode="/" horiz-adv-x="508" 
d="M-21 -128l464 926h71l-464 -926h-71z" />
    <glyph glyph-name="zero" unicode="0" horiz-adv-x="715" 
d="M359 60c132 0 212 135 212 288v2c0 152 -83 290 -214 290s-213 -134 -213 -288v-2c0 -152 83 -290 215 -290zM357 -12c-181 0 -295 164 -295 360v2c0 196 117 362 297 362s294 -164 294 -360v-2c0 -196 -116 -362 -296 -362z" />
    <glyph glyph-name="one" unicode="1" horiz-adv-x="358" 
d="M179 0v623l-132 -41l-19 64l171 59h58v-705h-78z" />
    <glyph glyph-name="two" unicode="2" horiz-adv-x="599" 
d="M48 0v61l254 224c107 96 146 150 146 220c0 82 -65 134 -141 134c-80 0 -132 -41 -188 -120l-58 42c65 94 128 149 252 149c126 0 217 -84 217 -198v-2c0 -102 -54 -165 -177 -272l-187 -166h371v-72h-489z" />
    <glyph glyph-name="three" unicode="3" horiz-adv-x="613" 
d="M311 -12c-117 0 -204 50 -261 125l57 51c55 -67 118 -104 205 -104c85 0 153 53 153 136v2c0 87 -81 135 -196 135h-45l-16 47l221 249h-342v71h447v-58l-220 -244c122 -11 231 -68 231 -197v-2c0 -125 -104 -211 -234 -211z" />
    <glyph glyph-name="four" unicode="4" horiz-adv-x="671" 
d="M138 232h294v361zM432 0v166h-369l-20 57l396 482h69v-473h109v-66h-109v-166h-76z" />
    <glyph glyph-name="five" unicode="5" horiz-adv-x="612" 
d="M303 -12c-100 0 -186 47 -250 111l52 57c61 -60 127 -96 199 -96c100 0 169 66 169 155v2c0 88 -73 147 -174 147c-60 0 -106 -17 -147 -40l-53 35l20 341h403v-73h-334l-15 -224c41 19 79 31 138 31c136 0 242 -81 242 -214v-2c0 -137 -103 -230 -250 -230z" />
    <glyph glyph-name="six" unicode="6" horiz-adv-x="647" 
d="M334 58c103 0 169 71 169 160v2c0 85 -70 150 -171 150c-105 0 -175 -76 -175 -153v-2c0 -89 73 -157 177 -157zM333 -12c-77 0 -140 27 -184 71c-56 56 -88 128 -88 271v2c0 213 107 380 291 380c84 0 146 -29 207 -80l-46 -61c-52 44 -101 69 -165 69
c-128 0 -205 -129 -205 -309c37 56 98 107 199 107c131 0 242 -83 242 -215v-2c0 -135 -110 -233 -251 -233z" />
    <glyph glyph-name="seven" unicode="7" horiz-adv-x="596" 
d="M137 0l316 628h-385v72h475v-59l-318 -641h-88z" />
    <glyph glyph-name="eight" unicode="8" horiz-adv-x="630" 
d="M315 59c115 0 183 60 183 131v2c0 77 -82 133 -183 133c-102 0 -183 -56 -183 -133v-2c0 -71 68 -131 183 -131zM315 390c89 0 160 52 160 128v2c0 69 -68 121 -160 121s-160 -51 -160 -121v-2c0 -76 71 -128 160 -128zM315 -10c-149 0 -263 81 -263 198v2
c0 84 60 141 144 172c-65 30 -120 80 -120 161v2c0 108 111 185 239 185s239 -77 239 -185v-2c0 -81 -55 -131 -120 -161c83 -31 144 -88 144 -171v-2c0 -119 -114 -199 -263 -199z" />
    <glyph glyph-name="nine" unicode="9" horiz-adv-x="647" 
d="M316 323c108 0 174 78 174 158v2c0 88 -73 159 -178 159s-168 -77 -168 -164v-2c0 -89 70 -153 172 -153zM295 -12c-92 0 -156 37 -216 86l46 61c57 -51 109 -75 172 -75c126 0 211 128 208 307c-39 -61 -101 -112 -198 -112c-144 0 -244 91 -244 217v2
c0 133 103 238 252 238c80 0 139 -27 184 -72c53 -53 87 -131 87 -271v-2c0 -222 -118 -379 -291 -379z" />
    <glyph glyph-name="colon" unicode=":" horiz-adv-x="255" 
d="M82 0v105h92v-105h-92zM82 412v105h92v-105h-92z" />
    <glyph glyph-name="semicolon" unicode=";" horiz-adv-x="255" 
d="M63 -122l-12 35c51 19 71 44 67 87h-36v105h92v-90c0 -81 -35 -120 -111 -137zM82 412v105h92v-105h-92z" />
    <glyph glyph-name="less" unicode="&#x3c;" horiz-adv-x="640" 
d="M541 86l-469 233v66l469 233v-77l-385 -188l385 -189v-78z" />
    <glyph glyph-name="equal" unicode="=" horiz-adv-x="640" 
d="M90 198v74h460v-74h-460zM90 432v74h460v-74h-460z" />
    <glyph glyph-name="greater" unicode="&#x3e;" horiz-adv-x="640" 
d="M99 86v77l385 188l-385 189v78l469 -233v-66z" />
    <glyph glyph-name="question" unicode="?" horiz-adv-x="537" 
d="M199 0v105h92v-105h-92zM220 198l-15 162l5 5c131 3 199 57 199 141v2c0 72 -55 130 -146 130c-75 0 -131 -34 -182 -94l-51 49c57 69 128 116 235 116c135 0 224 -84 224 -198v-2c0 -125 -94 -187 -208 -203l-10 -108h-51z" />
    <glyph glyph-name="at" unicode="@" horiz-adv-x="980" 
d="M450 133c86 0 164 87 164 180c0 73 -52 127 -122 127c-84 0 -164 -79 -164 -182c0 -80 50 -125 122 -125zM499 -162c-256 0 -446 197 -446 436s193 438 438 438s436 -187 436 -396c0 -170 -95 -245 -187 -245c-73 0 -121 33 -140 84c-39 -47 -90 -84 -165 -84
c-99 0 -179 73 -179 182c0 141 118 249 231 249c77 0 122 -40 146 -83l13 69l67 -9l-40 -227c-5 -28 -7 -50 -7 -61c0 -51 30 -81 85 -81c71 0 140 64 140 206c0 184 -172 362 -400 362c-229 0 -402 -183 -402 -404c0 -223 170 -402 410 -402c100 0 172 23 249 68l16 -27
c-77 -47 -161 -75 -265 -75z" />
    <glyph glyph-name="A" unicode="A" 
d="M234 256h319l-159 357zM39 0l319 705h74l319 -705h-85l-82 185h-381l-83 -185h-81z" />
    <glyph glyph-name="B" unicode="B" horiz-adv-x="722" 
d="M177 71h235c107 0 172 46 172 125v2c0 76 -63 120 -186 120h-221v-247zM177 388h207c96 0 161 42 161 125v2c0 69 -55 114 -155 114h-213v-241zM99 0v700h298c80 0 143 -23 183 -62c30 -31 45 -69 45 -112v-2c0 -91 -56 -138 -111 -162c83 -24 150 -74 150 -169v-2
c0 -120 -101 -191 -254 -191h-311z" />
    <glyph glyph-name="C" unicode="C" horiz-adv-x="738" 
d="M419 -12c-202 0 -351 159 -351 360v2c0 198 149 362 354 362c127 0 204 -44 273 -111l-54 -58c-60 56 -124 96 -220 96c-155 0 -271 -126 -271 -287v-2c0 -162 116 -289 271 -289c96 0 159 37 226 101l52 -51c-72 -74 -154 -123 -280 -123z" />
    <glyph glyph-name="D" unicode="D" horiz-adv-x="782" 
d="M178 73h164c177 0 290 119 290 275v2c0 155 -113 277 -290 277h-164v-554zM99 0v700h243c220 0 372 -151 372 -348v-2c0 -197 -152 -350 -372 -350h-243z" />
    <glyph glyph-name="E" unicode="E" horiz-adv-x="670" 
d="M99 0v700h506v-72h-427v-239h382v-72h-382v-245h432v-72h-511z" />
    <glyph glyph-name="F" unicode="F" horiz-adv-x="656" 
d="M99 0v700h503v-73h-424v-250h379v-72h-379v-305h-79z" />
    <glyph glyph-name="G" unicode="G" horiz-adv-x="784" 
d="M424 -12c-220 0 -356 160 -356 360v2c0 192 141 362 351 362c118 0 191 -34 261 -93l-51 -60c-53 47 -115 80 -213 80c-155 0 -266 -131 -266 -287v-2c0 -167 107 -291 277 -291c80 0 154 31 202 70v174h-213v71h289v-279c-65 -59 -162 -107 -281 -107z" />
    <glyph glyph-name="H" unicode="H" horiz-adv-x="760" 
d="M99 0v700h79v-311h404v311h79v-700h-79v315h-404v-315h-79z" />
    <glyph glyph-name="I" unicode="I" horiz-adv-x="291" 
d="M106 0v700h79v-700h-79z" />
    <glyph glyph-name="J" unicode="J" horiz-adv-x="553" 
d="M247 -10c-105 0 -172 52 -216 124l57 49c43 -65 87 -100 160 -100c79 0 137 57 137 168v469h80v-468c0 -83 -24 -144 -64 -184c-40 -39 -91 -58 -154 -58z" />
    <glyph glyph-name="K" unicode="K" horiz-adv-x="719" 
d="M99 0v700h79v-418l402 418h102l-300 -306l313 -394h-99l-269 339l-149 -151v-188h-79z" />
    <glyph glyph-name="L" unicode="L" horiz-adv-x="619" 
d="M99 0v700h79v-627h394v-73h-473z" />
    <glyph glyph-name="M" unicode="M" horiz-adv-x="868" 
d="M99 0v700h80l255 -382l255 382h80v-700h-79v567l-255 -375h-4l-255 374v-566h-77z" />
    <glyph glyph-name="N" unicode="N" 
d="M99 0v700h74l441 -561v561h77v-700h-63l-452 574v-574h-77z" />
    <glyph glyph-name="O" unicode="O" horiz-adv-x="850" 
d="M426 61c160 0 274 128 274 287v2c0 159 -116 289 -276 289s-274 -128 -274 -287v-2c0 -159 116 -289 276 -289zM424 -12c-213 0 -356 167 -356 360v2c0 193 145 362 358 362s356 -167 356 -360c1 -1 1 -1 0 -2c0 -193 -145 -362 -358 -362z" />
    <glyph glyph-name="P" unicode="P" horiz-adv-x="668" 
d="M178 319h173c116 0 192 62 192 154v2c0 100 -75 152 -188 152h-177v-308zM99 0v700h262c158 0 262 -84 262 -222v-2c0 -151 -126 -229 -275 -229h-170v-247h-79z" />
    <glyph glyph-name="Q" unicode="Q" horiz-adv-x="850" 
d="M426 61c63 0 118 20 161 53l-130 111l53 59l129 -117c39 49 61 112 61 181v2c0 159 -116 289 -276 289s-274 -128 -274 -287v-2c0 -159 116 -289 276 -289zM737 -21l-92 84c-60 -47 -133 -75 -221 -75c-213 0 -356 167 -356 360v2c0 193 145 362 358 362
s356 -167 356 -360c1 -1 1 -1 0 -2c0 -88 -29 -171 -84 -235l93 -77z" />
    <glyph glyph-name="R" unicode="R" horiz-adv-x="723" 
d="M178 343h215c104 0 180 54 180 144v2c0 87 -66 138 -179 138h-216v-284zM99 0v700h301c87 0 155 -26 199 -70c35 -35 54 -82 54 -138v-2c0 -116 -80 -185 -190 -204l215 -286h-97l-203 272h-2h-198v-272h-79z" />
    <glyph glyph-name="S" unicode="S" horiz-adv-x="640" 
d="M339 -10c-112 0 -202 36 -286 112l49 58c73 -67 143 -99 240 -99c95 0 156 50 156 119v2c0 65 -35 101 -182 133c-161 35 -235 87 -235 202v2c0 109 97 191 230 191c103 0 174 -29 246 -86l-46 -61c-65 53 -130 76 -202 76c-92 0 -149 -49 -149 -113v-2
c0 -66 35 -104 190 -136c156 -35 228 -91 228 -198v-2c0 -120 -100 -198 -239 -198z" />
    <glyph glyph-name="T" unicode="T" horiz-adv-x="648" 
d="M284 0v627h-235v73h550v-73h-235v-627h-80z" />
    <glyph glyph-name="U" unicode="U" horiz-adv-x="759" 
d="M379 -11c-173 0 -291 106 -291 304v407h79v-402c0 -152 79 -236 214 -236c129 0 211 78 211 231v407h79v-401c0 -205 -117 -310 -292 -310z" />
    <glyph glyph-name="V" unicode="V" horiz-adv-x="750" 
d="M340 -5l-301 705h88l249 -603l250 603h85l-301 -705h-70z" />
    <glyph glyph-name="W" unicode="W" horiz-adv-x="1107" 
d="M295 -5l-250 705h86l200 -583l192 585h65l192 -585l200 583h83l-250 -705h-67l-192 568l-193 -568h-66z" />
    <glyph glyph-name="X" unicode="X" horiz-adv-x="725" 
d="M46 0l269 357l-259 343h93l215 -286l213 286h92l-259 -342l269 -358h-94l-224 301l-224 -301h-91z" />
    <glyph glyph-name="Y" unicode="Y" horiz-adv-x="716" 
d="M318 0v277l-291 423h96l236 -350l238 350h92l-291 -422v-278h-80z" />
    <glyph glyph-name="Z" unicode="Z" horiz-adv-x="693" 
d="M67 0v53l453 576h-438v71h546v-53l-454 -576h454v-71h-561z" />
    <glyph glyph-name="bracketleft" unicode="[" horiz-adv-x="439" 
d="M94 -130v830h286v-60h-213v-710h213v-60h-286z" />
    <glyph glyph-name="backslash" unicode="\" horiz-adv-x="508" 
d="M458 -128l-464 926h71l464 -926h-71z" />
    <glyph glyph-name="bracketright" unicode="]" horiz-adv-x="439" 
d="M59 -130v60h214v710h-214v60h286v-830h-286z" />
    <glyph glyph-name="asciicircum" unicode="^" horiz-adv-x="500" 
d="M65 493l155 209h60l155 -209h-68l-118 154l-118 -154h-66z" />
    <glyph glyph-name="underscore" unicode="_" horiz-adv-x="600" 
d="M-2 -160v63h604v-63h-604z" />
    <glyph glyph-name="grave" unicode="`" horiz-adv-x="500" 
d="M249 574l-79 75l56 26l67 -101h-44z" />
    <glyph glyph-name="a" unicode="a" horiz-adv-x="579" 
d="M255 51c95 0 172 56 172 139v48c-39 11 -87 22 -151 22c-96 0 -151 -41 -151 -104v-2c0 -65 61 -103 130 -103zM240 -11c-97 0 -193 54 -193 161v2c0 111 90 169 221 169c67 0 111 -9 158 -22v16c0 92 -56 140 -153 140c-61 0 -109 -14 -157 -37l-23 63
c57 27 112 44 188 44c73 0 129 -19 167 -57c36 -36 54 -87 54 -152v-316h-76v77c-36 -47 -95 -88 -186 -88z" />
    <glyph glyph-name="b" unicode="b" horiz-adv-x="664" 
d="M347 58c100 0 182 74 182 199v2c0 123 -83 200 -182 200c-96 0 -187 -82 -187 -199v-2c0 -120 91 -200 187 -200zM361 -11c-96 0 -158 51 -198 110v-99h-77v730h77v-317c43 61 102 115 198 115c124 0 247 -98 247 -268v-2c0 -168 -122 -269 -247 -269z" />
    <glyph glyph-name="c" unicode="c" horiz-adv-x="571" 
d="M319 -12c-152 0 -265 123 -265 268v2c0 147 113 270 265 270c98 0 158 -40 207 -92l-51 -54c-41 43 -86 78 -157 78c-105 0 -185 -88 -185 -200v-2c0 -112 82 -201 190 -201c67 0 117 33 158 77l49 -46c-52 -59 -114 -100 -211 -100z" />
    <glyph glyph-name="d" unicode="d" horiz-adv-x="664" 
d="M317 58c96 0 187 81 187 200v2c0 119 -91 199 -187 199c-100 0 -182 -74 -182 -199v-2c0 -123 83 -200 182 -200zM303 -11c-124 0 -247 98 -247 268v2c0 168 123 269 247 269c96 0 158 -51 198 -110v312h77v-730h-77v104c-43 -62 -102 -115 -198 -115z" />
    <glyph glyph-name="e" unicode="e" horiz-adv-x="592" 
d="M132 289h333c-8 93 -64 174 -165 174c-88 0 -157 -74 -168 -174zM542 227h-410c11 -109 91 -172 182 -172c72 0 120 29 163 73l48 -43c-52 -59 -114 -97 -213 -97c-141 0 -258 109 -258 270c0 150 104 270 248 270c153 0 241 -122 241 -274c0 -7 0 -15 -1 -27z" />
    <glyph glyph-name="f" unicode="f" horiz-adv-x="367" 
d="M115 0v449h-71v67h71v45c0 59 15 103 45 133c27 27 64 40 111 40c36 0 60 -4 85 -13v-67c-28 8 -48 13 -75 13c-60 0 -90 -37 -90 -110v-42h164v-66h-163v-449h-77z" />
    <glyph glyph-name="g" unicode="g" horiz-adv-x="664" 
d="M314 108c98 0 190 71 190 175v2c0 106 -92 175 -190 175c-99 0 -179 -68 -179 -174v-2c0 -104 83 -176 179 -176zM315 -162c-87 0 -166 24 -235 72l35 60c60 -43 124 -66 199 -66c115 0 188 63 188 184v61c-45 -60 -108 -109 -203 -109c-124 0 -243 94 -243 242v2
c0 151 119 244 243 244c97 0 159 -48 202 -104v93h77v-427c0 -80 -23 -140 -66 -183c-47 -47 -114 -69 -197 -69z" />
    <glyph glyph-name="h" unicode="h" horiz-adv-x="616" 
d="M86 0v730h77v-303c35 56 88 101 177 101c124 0 198 -84 198 -207v-321h-77v302c0 96 -51 156 -143 156c-89 0 -155 -65 -155 -162v-296h-77z" />
    <glyph glyph-name="i" unicode="i" horiz-adv-x="263" 
d="M93 0v517h77v-517h-77zM88 630v85h88v-85h-88z" />
    <glyph glyph-name="j" unicode="j" horiz-adv-x="263" 
d="M44 -163c-19 0 -31 1 -48 5v63c12 -3 27 -3 38 -3c35 0 59 21 59 69v546h77v-547c0 -92 -47 -133 -126 -133zM88 630v85h88v-85h-88z" />
    <glyph glyph-name="k" unicode="k" horiz-adv-x="569" 
d="M86 0v730h77v-504l279 291h96l-217 -222l224 -295h-92l-185 241l-105 -106v-135h-77z" />
    <glyph glyph-name="l" unicode="l" horiz-adv-x="263" 
d="M93 0v730h77v-730h-77z" />
    <glyph glyph-name="m" unicode="m" horiz-adv-x="951" 
d="M86 0v517h77v-87c35 52 80 98 167 98c84 0 138 -44 166 -103c38 57 91 103 182 103c120 0 192 -79 192 -208v-320h-77v302c0 100 -50 156 -134 156c-77 0 -143 -58 -143 -160v-298h-76v304c0 97 -50 154 -133 154c-82 0 -144 -68 -144 -163v-295h-77z" />
    <glyph glyph-name="n" unicode="n" horiz-adv-x="616" 
d="M86 0v517h77v-90c35 56 88 101 177 101c124 0 198 -84 198 -207v-321h-77v302c0 96 -51 156 -143 156c-89 0 -155 -65 -155 -162v-296h-77z" />
    <glyph glyph-name="o" unicode="o" horiz-adv-x="646" 
d="M324 57c112 0 190 91 190 199v2c0 111 -83 202 -192 202c-112 0 -189 -91 -189 -200v-2c0 -111 82 -201 191 -201zM322 -12c-155 0 -268 122 -268 268v2c0 147 113 270 270 270c156 0 269 -122 269 -268v-2c0 -147 -115 -270 -271 -270z" />
    <glyph glyph-name="p" unicode="p" horiz-adv-x="664" 
d="M347 58c100 0 182 74 182 199v2c0 123 -83 200 -182 200c-96 0 -187 -82 -187 -199v-2c0 -120 91 -200 187 -200zM86 -160v677h77v-104c43 61 102 115 198 115c124 0 247 -98 247 -268v-2c0 -168 -122 -269 -247 -269c-96 0 -158 51 -198 110v-259h-77z" />
    <glyph glyph-name="q" unicode="q" horiz-adv-x="664" 
d="M317 58c96 0 187 81 187 200v2c0 119 -91 199 -187 199c-100 0 -182 -74 -182 -199v-2c0 -123 83 -200 182 -200zM501 -160v264c-43 -62 -102 -115 -198 -115c-124 0 -247 98 -247 268v2c0 168 123 269 247 269c96 0 158 -51 198 -110v99h77v-677h-77z" />
    <glyph glyph-name="r" unicode="r" horiz-adv-x="405" 
d="M86 0v517h77v-135c38 86 113 147 211 144v-83h-6c-113 0 -205 -81 -205 -237v-206h-77z" />
    <glyph glyph-name="s" unicode="s" horiz-adv-x="498" 
d="M257 -10c-75 0 -155 29 -214 76l39 55c56 -43 118 -66 179 -66c63 0 107 31 107 82v2c0 51 -61 72 -129 91c-80 24 -171 50 -171 146v2c0 89 74 148 176 148c64 0 133 -22 186 -57l-35 -58c-48 31 -102 50 -153 50c-61 0 -100 -32 -100 -75v-2c0 -49 64 -68 133 -89
c80 -24 166 -55 166 -148v-2c0 -98 -81 -155 -184 -155z" />
    <glyph glyph-name="t" unicode="t" horiz-adv-x="404" 
d="M259 -9c-84 0 -146 41 -146 146v312h-72v68h72v156h77v-156h164v-68h-164v-302c0 -64 35 -86 87 -86c27 0 48 5 75 18v-66c-27 -15 -56 -22 -93 -22z" />
    <glyph glyph-name="u" unicode="u" horiz-adv-x="616" 
d="M276 -11c-124 0 -198 84 -198 207v321h77v-302c0 -96 51 -156 143 -156c88 0 155 65 155 162v296h76v-517h-76v90c-35 -56 -88 -101 -177 -101z" />
    <glyph glyph-name="v" unicode="v" horiz-adv-x="587" 
d="M259 -4l-224 521h85l174 -429l175 429h83l-225 -521h-68z" />
    <glyph glyph-name="w" unicode="w" horiz-adv-x="861" 
d="M223 -4l-181 521h82l136 -415l139 417h64l140 -417l136 415h80l-182 -521h-67l-139 408l-140 -408h-68z" />
    <glyph glyph-name="x" unicode="x" horiz-adv-x="574" 
d="M39 0l203 263l-195 254h88l153 -200l153 200h86l-196 -252l204 -265h-89l-160 211l-161 -211h-86z" />
    <glyph glyph-name="y" unicode="y" horiz-adv-x="591" 
d="M166 -163c-43 0 -75 9 -110 26l26 61c25 -13 48 -19 81 -19c47 0 75 24 106 97l-235 515h85l188 -431l166 431h82l-217 -534c-44 -107 -95 -146 -172 -146z" />
    <glyph glyph-name="z" unicode="z" horiz-adv-x="556" 
d="M56 0v49l343 403h-331v65h436v-49l-344 -403h344v-65h-448z" />
    <glyph glyph-name="braceleft" unicode="{" horiz-adv-x="483" 
d="M428 -90l-12 -51c-180 32 -217 98 -217 202c0 15 1 58 1 76c0 77 -29 120 -118 120h-26v60h26c89 0 118 41 118 120c0 16 -1 61 -1 76c0 104 37 170 217 202l12 -51c-140 -37 -156 -71 -156 -161c0 -20 1 -54 1 -75c0 -84 -40 -121 -104 -141c67 -21 104 -58 104 -141
c0 -21 -1 -55 -1 -75c0 -89 16 -127 156 -161z" />
    <glyph glyph-name="bar" unicode="|" horiz-adv-x="303" 
d="M119 -128v926h65v-926h-65z" />
    <glyph glyph-name="braceright" unicode="}" horiz-adv-x="483" 
d="M67 -141l-13 51c141 35 157 72 157 161c0 20 -1 54 -1 75c0 84 40 121 104 141c-67 21 -104 57 -104 141c0 21 1 55 1 75c0 90 -16 124 -157 161l13 51c180 -32 217 -98 217 -202c0 -15 -1 -60 -1 -76c0 -79 28 -120 117 -120h26v-60h-26c-89 0 -117 -41 -117 -120
c0 -18 1 -61 1 -76c0 -104 -37 -170 -217 -202z" />
    <glyph glyph-name="asciitilde" unicode="~" horiz-adv-x="473" 
d="M120 237l-47 13c20 76 47 106 95 106c44 0 99 -41 134 -41c27 0 37 13 52 50l46 -13c-20 -76 -46 -106 -94 -106c-45 0 -100 41 -134 41c-27 0 -37 -13 -52 -50z" />
    <glyph glyph-name="Adieresis" unicode="&#xc4;" 
d="M262 762v95h90v-95h-90zM438 762v95h90v-95h-90zM234 256h319l-159 357zM39 0l319 705h74l319 -705h-85l-82 185h-381l-83 -185h-81z" />
    <glyph glyph-name="Aring" unicode="&#xc5;" 
d="M234 256h319l-159 357zM395 705c33 0 62 28 62 61v2c0 33 -27 61 -62 61s-62 -28 -62 -61v-2c0 -33 29 -61 62 -61zM39 0l307 680c-32 17 -55 49 -55 86v2c0 53 49 99 104 99s104 -46 104 -99v-2c0 -37 -23 -69 -55 -86l307 -680h-85l-82 185h-381l-83 -185h-81z" />
    <glyph glyph-name="Ccedilla" unicode="&#xc7;" horiz-adv-x="738" 
d="M369 -155l-75 34l77 112c-177 24 -303 171 -303 357v2c0 198 149 362 354 362c127 0 204 -44 273 -111l-54 -58c-60 56 -124 96 -220 96c-155 0 -271 -126 -271 -287v-2c0 -162 116 -289 271 -289c96 0 159 37 226 101l52 -51c-69 -71 -147 -118 -264 -123z" />
    <glyph glyph-name="Eacute" unicode="&#xc9;" horiz-adv-x="670" 
d="M323 745l67 101l56 -26l-79 -75h-44zM99 0v700h506v-72h-427v-239h382v-72h-382v-245h432v-72h-511zM757 700v45h49v-45h-49zM757 519v54h29v-54h-29z" />
    <glyph glyph-name="Ntilde" unicode="&#xd1;" 
d="M278 753l-47 13c20 76 47 105 95 105c45 0 100 -40 134 -40c27 0 37 13 52 49l47 -13c-20 -76 -47 -105 -95 -105c-45 0 -100 40 -134 40c-27 0 -37 -13 -52 -49zM99 0v700h74l441 -561v561h77v-700h-63l-452 574v-574h-77z" />
    <glyph glyph-name="Odieresis" unicode="&#xd6;" horiz-adv-x="850" 
d="M292 762v95h90v-95h-90zM468 762v95h90v-95h-90zM426 61c160 0 274 128 274 287v2c0 159 -116 289 -276 289s-274 -128 -274 -287v-2c0 -159 116 -289 276 -289zM424 -12c-213 0 -356 167 -356 360v2c0 193 145 362 358 362s356 -167 356 -360c1 -1 1 -1 0 -2
c0 -193 -145 -362 -358 -362z" />
    <glyph glyph-name="Udieresis" unicode="&#xdc;" horiz-adv-x="759" 
d="M246 759v95h90v-95h-90zM422 759v95h90v-95h-90zM379 -11c-173 0 -291 106 -291 304v407h79v-402c0 -152 79 -236 214 -236c129 0 211 78 211 231v407h79v-401c0 -205 -117 -310 -292 -310z" />
    <glyph glyph-name="aacute" unicode="&#xe1;" horiz-adv-x="579" 
d="M274 573l67 101l56 -26l-79 -75h-44zM255 51c95 0 172 56 172 139v48c-39 11 -87 22 -151 22c-96 0 -151 -41 -151 -104v-2c0 -65 61 -103 130 -103zM240 -11c-97 0 -193 54 -193 161v2c0 111 90 169 221 169c67 0 111 -9 158 -22v16c0 92 -56 140 -153 140
c-61 0 -109 -14 -157 -37l-23 63c57 27 112 44 188 44c73 0 129 -19 167 -57c36 -36 54 -87 54 -152v-316h-76v77c-36 -47 -95 -88 -186 -88z" />
    <glyph glyph-name="agrave" unicode="&#xe0;" horiz-adv-x="579" 
d="M281 573l-79 75l56 26l67 -101h-44zM255 51c95 0 172 56 172 139v48c-39 11 -87 22 -151 22c-96 0 -151 -41 -151 -104v-2c0 -65 61 -103 130 -103zM240 -11c-97 0 -193 54 -193 161v2c0 111 90 169 221 169c67 0 111 -9 158 -22v16c0 92 -56 140 -153 140
c-61 0 -109 -14 -157 -37l-23 63c57 27 112 44 188 44c73 0 129 -19 167 -57c36 -36 54 -87 54 -152v-316h-76v77c-36 -47 -95 -88 -186 -88z" />
    <glyph glyph-name="acircumflex" unicode="&#xe2;" horiz-adv-x="579" 
d="M193 573l74 91h48l74 -91h-46l-53 47l-52 -47h-45zM255 51c95 0 172 56 172 139v48c-39 11 -87 22 -151 22c-96 0 -151 -41 -151 -104v-2c0 -65 61 -103 130 -103zM240 -11c-97 0 -193 54 -193 161v2c0 111 90 169 221 169c67 0 111 -9 158 -22v16c0 92 -56 140 -153 140
c-61 0 -109 -14 -157 -37l-23 63c57 27 112 44 188 44c73 0 129 -19 167 -57c36 -36 54 -87 54 -152v-316h-76v77c-36 -47 -95 -88 -186 -88z" />
    <glyph glyph-name="adieresis" unicode="&#xe4;" horiz-adv-x="579" 
d="M198 573v67h63v-67h-63zM321 573v67h63v-67h-63zM255 51c95 0 172 56 172 139v48c-39 11 -87 22 -151 22c-96 0 -151 -41 -151 -104v-2c0 -65 61 -103 130 -103zM240 -11c-97 0 -193 54 -193 161v2c0 111 90 169 221 169c67 0 111 -9 158 -22v16c0 92 -56 140 -153 140
c-61 0 -109 -14 -157 -37l-23 63c57 27 112 44 188 44c73 0 129 -19 167 -57c36 -36 54 -87 54 -152v-316h-76v77c-36 -47 -95 -88 -186 -88z" />
    <glyph glyph-name="atilde" unicode="&#xe3;" horiz-adv-x="579" 
d="M210 569l-33 9c15 53 32 74 67 74c31 0 70 -28 93 -28c19 0 26 9 37 34l33 -9c-15 -53 -34 -74 -67 -74c-32 0 -69 28 -94 28c-19 0 -25 -9 -36 -34zM255 51c95 0 172 56 172 139v48c-39 11 -87 22 -151 22c-96 0 -151 -41 -151 -104v-2c0 -65 61 -103 130 -103zM240 -11
c-97 0 -193 54 -193 161v2c0 111 90 169 221 169c67 0 111 -9 158 -22v16c0 92 -56 140 -153 140c-61 0 -109 -14 -157 -37l-23 63c57 27 112 44 188 44c73 0 129 -19 167 -57c36 -36 54 -87 54 -152v-316h-76v77c-36 -47 -95 -88 -186 -88z" />
    <glyph glyph-name="aring" unicode="&#xe5;" horiz-adv-x="579" 
d="M291 631c33 0 62 28 62 61v2c0 33 -27 61 -62 61s-62 -28 -62 -61v-2c0 -33 29 -61 62 -61zM291 593c-55 0 -104 46 -104 99v2c0 53 49 99 104 99s104 -46 104 -99v-2c0 -53 -49 -99 -104 -99zM255 51c95 0 172 56 172 139v48c-39 11 -87 22 -151 22
c-96 0 -151 -41 -151 -104v-2c0 -65 61 -103 130 -103zM240 -11c-97 0 -193 54 -193 161v2c0 111 90 169 221 169c67 0 111 -9 158 -22v16c0 92 -56 140 -153 140c-61 0 -109 -14 -157 -37l-23 63c57 27 112 44 188 44c73 0 129 -19 167 -57c36 -36 54 -87 54 -152v-316h-76
v77c-36 -47 -95 -88 -186 -88z" />
    <glyph glyph-name="ccedilla" unicode="&#xe7;" horiz-adv-x="571" 
d="M268 -155l-75 34l78 114c-126 21 -217 133 -217 263v2c0 147 113 270 265 270c98 0 158 -40 207 -92l-51 -54c-41 43 -86 78 -157 78c-105 0 -185 -88 -185 -200v-2c0 -112 82 -201 190 -201c67 0 117 33 158 77l49 -46c-51 -56 -107 -95 -196 -100z" />
    <glyph glyph-name="eacute" unicode="&#xe9;" horiz-adv-x="592" 
d="M280 573l67 101l56 -26l-79 -75h-44zM132 289h333c-8 93 -64 174 -165 174c-88 0 -157 -74 -168 -174zM542 227h-410c11 -109 91 -172 182 -172c72 0 120 29 163 73l48 -43c-52 -59 -114 -97 -213 -97c-141 0 -258 109 -258 270c0 150 104 270 248 270
c153 0 241 -122 241 -274c0 -7 0 -15 -1 -27z" />
    <glyph glyph-name="egrave" unicode="&#xe8;" horiz-adv-x="592" 
d="M285 573l-79 75l56 26l67 -101h-44zM132 289h333c-8 93 -64 174 -165 174c-88 0 -157 -74 -168 -174zM542 227h-410c11 -109 91 -172 182 -172c72 0 120 29 163 73l48 -43c-52 -59 -114 -97 -213 -97c-141 0 -258 109 -258 270c0 150 104 270 248 270
c153 0 241 -122 241 -274c0 -7 0 -15 -1 -27z" />
    <glyph glyph-name="ecircumflex" unicode="&#xea;" horiz-adv-x="592" 
d="M201 573l74 91h48l74 -91h-46l-53 47l-52 -47h-45zM132 289h333c-8 93 -64 174 -165 174c-88 0 -157 -74 -168 -174zM542 227h-410c11 -109 91 -172 182 -172c72 0 120 29 163 73l48 -43c-52 -59 -114 -97 -213 -97c-141 0 -258 109 -258 270c0 150 104 270 248 270
c153 0 241 -122 241 -274c0 -7 0 -15 -1 -27z" />
    <glyph glyph-name="edieresis" unicode="&#xeb;" horiz-adv-x="592" 
d="M206 573v67h63v-67h-63zM329 573v67h63v-67h-63zM132 289h333c-8 93 -64 174 -165 174c-88 0 -157 -74 -168 -174zM542 227h-410c11 -109 91 -172 182 -172c72 0 120 29 163 73l48 -43c-52 -59 -114 -97 -213 -97c-141 0 -258 109 -258 270c0 150 104 270 248 270
c153 0 241 -122 241 -274c0 -7 0 -15 -1 -27z" />
    <glyph glyph-name="iacute" unicode="&#xed;" horiz-adv-x="263" 
d="M114 573l67 101l56 -26l-79 -75h-44zM93 0v517h77v-517h-77z" />
    <glyph glyph-name="igrave" unicode="&#xec;" horiz-adv-x="263" 
d="M111 573l-79 75l56 26l67 -101h-44zM93 0v517h77v-517h-77z" />
    <glyph glyph-name="icircumflex" unicode="&#xee;" horiz-adv-x="263" 
d="M-9 595l106 131h68l106 -131h-66l-75 67l-75 -67h-64zM93 0v517h77v-517h-77z" />
    <glyph glyph-name="idieresis" unicode="&#xef;" horiz-adv-x="263" 
d="M38 573v67h63v-67h-63zM161 573v67h63v-67h-63zM93 0v517h77v-517h-77z" />
    <glyph glyph-name="ntilde" unicode="&#xf1;" horiz-adv-x="616" 
d="M195 586l-47 13c20 76 47 105 95 105c45 0 100 -40 134 -40c27 0 37 13 52 49l47 -13c-20 -76 -47 -105 -95 -105c-45 0 -100 40 -134 40c-27 0 -37 -13 -52 -49zM86 0v517h77v-90c35 56 88 101 177 101c124 0 198 -84 198 -207v-321h-77v302c0 96 -51 156 -143 156
c-89 0 -155 -65 -155 -162v-296h-77z" />
    <glyph glyph-name="oacute" unicode="&#xf3;" horiz-adv-x="646" 
d="M302 573l67 101l56 -26l-79 -75h-44zM324 57c112 0 190 91 190 199v2c0 111 -83 202 -192 202c-112 0 -189 -91 -189 -200v-2c0 -111 82 -201 191 -201zM322 -12c-155 0 -268 122 -268 268v2c0 147 113 270 270 270c156 0 269 -122 269 -268v-2
c0 -147 -115 -270 -271 -270z" />
    <glyph glyph-name="ograve" unicode="&#xf2;" horiz-adv-x="646" 
d="M303 573l-79 75l56 26l67 -101h-44zM324 57c112 0 190 91 190 199v2c0 111 -83 202 -192 202c-112 0 -189 -91 -189 -200v-2c0 -111 82 -201 191 -201zM322 -12c-155 0 -268 122 -268 268v2c0 147 113 270 270 270c156 0 269 -122 269 -268v-2
c0 -147 -115 -270 -271 -270z" />
    <glyph glyph-name="ocircumflex" unicode="&#xf4;" horiz-adv-x="646" 
d="M225 573l74 91h48l74 -91h-46l-53 47l-52 -47h-45zM324 57c112 0 190 91 190 199v2c0 111 -83 202 -192 202c-112 0 -189 -91 -189 -200v-2c0 -111 82 -201 191 -201zM322 -12c-155 0 -268 122 -268 268v2c0 147 113 270 270 270c156 0 269 -122 269 -268v-2
c0 -147 -115 -270 -271 -270z" />
    <glyph glyph-name="odieresis" unicode="&#xf6;" horiz-adv-x="646" 
d="M230 573v67h63v-67h-63zM353 573v67h63v-67h-63zM324 57c112 0 190 91 190 199v2c0 111 -83 202 -192 202c-112 0 -189 -91 -189 -200v-2c0 -111 82 -201 191 -201zM322 -12c-155 0 -268 122 -268 268v2c0 147 113 270 270 270c156 0 269 -122 269 -268v-2
c0 -147 -115 -270 -271 -270z" />
    <glyph glyph-name="otilde" unicode="&#xf5;" horiz-adv-x="646" 
d="M241 567l-33 9c15 53 32 74 67 74c31 0 70 -28 93 -28c19 0 26 9 37 34l33 -9c-15 -53 -34 -74 -67 -74c-32 0 -69 28 -94 28c-19 0 -25 -9 -36 -34zM324 57c112 0 190 91 190 199v2c0 111 -83 202 -192 202c-112 0 -189 -91 -189 -200v-2c0 -111 82 -201 191 -201z
M322 -12c-155 0 -268 122 -268 268v2c0 147 113 270 270 270c156 0 269 -122 269 -268v-2c0 -147 -115 -270 -271 -270z" />
    <glyph glyph-name="uacute" unicode="&#xfa;" horiz-adv-x="616" 
d="M292 573l67 101l56 -26l-79 -75h-44zM276 -11c-124 0 -198 84 -198 207v321h77v-302c0 -96 51 -156 143 -156c88 0 155 65 155 162v296h76v-517h-76v90c-35 -56 -88 -101 -177 -101z" />
    <glyph glyph-name="ugrave" unicode="&#xf9;" horiz-adv-x="616" 
d="M302 573l-79 75l56 26l67 -101h-44zM276 -11c-124 0 -198 84 -198 207v321h77v-302c0 -96 51 -156 143 -156c88 0 155 65 155 162v296h76v-517h-76v90c-35 -56 -88 -101 -177 -101z" />
    <glyph glyph-name="ucircumflex" unicode="&#xfb;" horiz-adv-x="616" 
d="M169 595l106 131h68l106 -131h-66l-75 67l-75 -67h-64zM276 -11c-124 0 -198 84 -198 207v321h77v-302c0 -96 51 -156 143 -156c88 0 155 65 155 162v296h76v-517h-76v90c-35 -56 -88 -101 -177 -101z" />
    <glyph glyph-name="udieresis" unicode="&#xfc;" horiz-adv-x="616" 
d="M216 573v67h63v-67h-63zM339 573v67h63v-67h-63zM276 -11c-124 0 -198 84 -198 207v321h77v-302c0 -96 51 -156 143 -156c88 0 155 65 155 162v296h76v-517h-76v90c-35 -56 -88 -101 -177 -101z" />
    <glyph glyph-name="dagger" unicode="&#x2020;" horiz-adv-x="410" 
d="M178 238l6 282l-124 -8v55l123 -8l-9 141h62l-9 -141l123 8v-55l-124 8l6 -282h-54z" />
    <glyph glyph-name="degree" unicode="&#xb0;" horiz-adv-x="458" 
d="M229 452c57 0 99 48 99 100v2c0 52 -42 100 -99 100s-99 -48 -99 -100v-2c0 -52 42 -100 99 -100zM229 400c-83 0 -157 72 -157 152v2c0 83 74 152 157 152c82 0 157 -69 157 -152v-2c0 -80 -75 -152 -157 -152z" />
    <glyph glyph-name="cent" unicode="&#xa2;" horiz-adv-x="581" 
d="M250 169l75 387h-4c-104 0 -185 -88 -185 -199v-2c0 -84 46 -155 114 -186zM212 -6l22 106c-104 37 -176 137 -176 253v2c0 147 116 270 265 270h13l15 81h65l-18 -90c56 -15 97 -47 132 -84l-50 -52c-28 29 -59 55 -98 67l-77 -392c7 -1 14 -1 21 -1c67 0 118 33 159 77
l48 -45c-52 -60 -115 -101 -211 -101c-9 0 -18 0 -27 1l-18 -92h-65z" />
    <glyph glyph-name="sterling" unicode="&#xa3;" horiz-adv-x="644" 
d="M67 0v46l84 21v228h-84v69h84v108c0 75 22 137 63 178c39 39 91 60 158 60c105 0 167 -47 214 -108l-61 -48c-39 49 -81 83 -154 83c-39 0 -72 -12 -98 -37c-29 -30 -43 -73 -43 -128v-108h279v-69h-279v-225h355v-70h-518z" />
    <glyph glyph-name="section" unicode="&#xa7;" horiz-adv-x="632" 
d="M387 263c65 0 109 32 109 69v2c0 32 -32 60 -142 87c-49 12 -82 16 -109 16c-65 0 -109 -32 -109 -69v-2c0 -32 32 -60 142 -87c48 -12 82 -16 109 -16zM328 -10c-93 0 -173 38 -229 95l50 48c47 -45 108 -77 181 -77c71 0 103 29 103 66v2c0 38 -39 62 -163 92
c-152 35 -208 75 -208 142v2c0 61 53 101 132 114c-45 23 -74 58 -74 101v2c0 80 72 133 184 133c93 0 173 -38 229 -95l-50 -48c-47 45 -108 77 -181 77c-71 0 -103 -27 -103 -66v-2c0 -37 38 -63 163 -92c152 -37 208 -72 208 -142v-2c0 -60 -53 -101 -132 -114
c45 -23 74 -58 74 -101v-2c0 -80 -72 -133 -184 -133z" />
    <glyph glyph-name="bullet" unicode="&#x2022;" horiz-adv-x="478" 
d="M239 221c-72 0 -131 58 -131 130v2c0 72 61 130 131 130c68 0 131 -58 131 -130v-2c0 -72 -59 -130 -131 -130z" />
    <glyph glyph-name="paragraph" unicode="&#xb6;" horiz-adv-x="510" 
d="M338 0v264h-11c-157 0 -279 77 -279 217v2c0 136 109 217 264 217h106v-700h-80z" />
    <glyph glyph-name="germandbls" unicode="&#xdf;" horiz-adv-x="620" 
d="M292 -2v62c119 3 191 48 191 132v2c0 80 -74 125 -191 137v57c84 32 148 79 148 162v2c0 69 -52 117 -131 117c-85 0 -146 -64 -146 -167v-502h-77v501c0 141 88 236 227 236c125 0 206 -79 206 -180v-2c0 -94 -70 -154 -139 -183c94 -22 182 -74 182 -178v-2
c0 -123 -105 -197 -270 -194z" />
    <glyph glyph-name="registered" unicode="&#xae;" horiz-adv-x="830" 
d="M328 364h106c52 0 88 23 88 66v2c0 39 -32 64 -85 64h-109v-132zM273 175v371h166c47 0 86 -15 110 -39c19 -17 30 -41 30 -72v-2c0 -60 -40 -96 -96 -109l115 -149h-68l-107 140h-2h-93v-140h-55zM414 19c188 0 330 151 330 331v2c0 181 -141 329 -328 329
c-188 0 -330 -151 -330 -331v-2c0 -181 141 -329 328 -329zM414 -12c-203 0 -361 163 -361 360v2c0 196 159 362 363 362c203 0 361 -163 361 -360v-2c0 -196 -159 -362 -363 -362z" />
    <glyph glyph-name="copyright" unicode="&#xa9;" horiz-adv-x="830" 
d="M419 163c-107 0 -186 86 -186 191v2c0 104 80 191 188 191c68 0 107 -25 144 -60l-37 -40c-29 28 -64 50 -108 50c-75 0 -131 -64 -131 -140v-2c0 -77 57 -141 132 -141c47 0 77 19 110 50l36 -35c-39 -40 -80 -66 -148 -66zM414 19c188 0 330 151 330 331v2
c0 181 -141 329 -328 329c-188 0 -330 -151 -330 -331v-2c0 -181 141 -329 328 -329zM414 -12c-203 0 -361 163 -361 360v2c0 196 159 362 363 362c203 0 361 -163 361 -360v-2c0 -196 -159 -362 -363 -362z" />
    <glyph glyph-name="trademark" unicode="&#x2122;" horiz-adv-x="690" 
d="M125 392v266h-99v42h242v-42h-99v-266h-44zM336 392v308h47l110 -169l109 169h46v-308h-43v236l-110 -167h-6l-109 167v-236h-44z" />
    <glyph glyph-name="acute" unicode="&#xb4;" horiz-adv-x="500" 
d="M207 573l67 101l56 -26l-79 -75h-44z" />
    <glyph glyph-name="dieresis" unicode="&#xa8;" horiz-adv-x="500" 
d="M157 573v67h63v-67h-63zM280 573v67h63v-67h-63z" />
    <glyph glyph-name="AE" unicode="&#xc6;" horiz-adv-x="1045" 
d="M249 256h242v374h-24zM17 0l411 700h552v-72h-409v-239h364v-72h-364v-245h414v-72h-494v185h-282l-109 -185h-83z" />
    <glyph glyph-name="Oslash" unicode="&#xd8;" horiz-adv-x="850" 
d="M426 60c160 0 274 128 274 288v2c0 72 -23 136 -63 187l-381 -416c45 -39 103 -61 170 -61zM213 163l381 416c-45 39 -103 61 -170 61c-160 0 -274 -128 -274 -288v-2c0 -72 23 -136 63 -187zM424 -12c-87 0 -160 26 -219 73l-62 -66h-83l99 108c-59 65 -91 152 -91 245
v2c0 193 145 362 358 362c87 0 160 -27 219 -74l62 67h83l-99 -108c59 -65 91 -152 91 -245c1 -1 1 -1 0 -2c0 -193 -145 -362 -358 -362z" />
    <glyph glyph-name="plusminus" unicode="&#xb1;" horiz-adv-x="604" 
d="M306 -12c-113 0 -204 53 -263 126l58 50c51 -64 118 -104 207 -104c91 0 158 50 158 130v2c0 80 -68 127 -187 127h-72v68h74c96 0 166 49 166 129v2c0 71 -58 122 -150 122c-79 0 -133 -36 -181 -100l-58 42c56 79 130 130 241 130c133 0 228 -79 228 -187v-2
c0 -93 -60 -140 -122 -164c80 -27 141 -77 141 -167v-2c0 -112 -97 -202 -240 -202z" />
    <glyph glyph-name="yen" unicode="&#xa5;" horiz-adv-x="686" 
d="M305 0v116h-205v62h205v88h-205v62h181l-254 372h94l223 -342l225 342h90l-255 -372h182v-62h-205v-88h205v-62h-205v-116h-76z" />
    <glyph glyph-name="mu" unicode="&#xb5;" horiz-adv-x="850" 
d="M426 61c160 0 274 128 274 287v2c0 159 -116 289 -276 289s-274 -128 -274 -287v-2c0 -159 116 -289 276 -289zM709 -101l-132 123c-47 -23 -98 -34 -153 -34c-213 0 -356 167 -356 360v2c0 193 145 362 358 362s356 -167 356 -360c1 -1 1 -1 0 -2
c0 -111 -46 -213 -129 -281l172 -164v-6h-116z" />
    <glyph glyph-name="pi" unicode="&#x3c0;" horiz-adv-x="830" 
d="M348 347h84c57 0 94 26 94 73v2c0 48 -36 71 -93 71h-85v-146zM292 172v371h146c88 0 144 -44 144 -120v-2c0 -84 -71 -124 -151 -124h-83v-125h-56zM414 19c188 0 330 151 330 331v2c0 181 -141 329 -328 329c-188 0 -330 -151 -330 -331v-2c0 -181 141 -329 328 -329z
M414 -12c-203 0 -361 163 -361 360v2c0 196 159 362 363 362c203 0 361 -163 361 -360v-2c0 -196 -159 -362 -363 -362z" />
    <glyph glyph-name="ordfeminine" unicode="&#xaa;" horiz-adv-x="390" 
d="M177 450c47 0 87 27 87 70v24c-20 7 -44 11 -76 11c-47 0 -75 -22 -75 -53v-2c0 -32 29 -50 64 -50zM58 289v47h260v-47h-260zM168 408c-52 0 -107 30 -107 90v2c0 60 51 93 123 93c35 0 57 -4 80 -11v5c0 47 -29 71 -78 71c-31 0 -57 -9 -86 -22l-15 42
c35 15 63 25 106 25c39 0 70 -11 93 -32c19 -19 29 -47 29 -84v-173h-49v38c-23 -27 -53 -44 -96 -44z" />
    <glyph glyph-name="ordmasculine" unicode="&#xba;" horiz-adv-x="390" 
d="M196 455c56 0 92 44 92 99v2c0 56 -40 101 -94 101c-56 0 -92 -44 -92 -99v-2c0 -56 39 -101 94 -101zM51 289v47h288v-47h-288zM194 407c-84 0 -146 67 -146 147v2c0 81 63 149 148 149c84 0 146 -67 146 -147v-2c0 -81 -63 -149 -148 -149z" />
    <glyph glyph-name="Omega" unicode="&#x3a9;" horiz-adv-x="735" 
d="M115 0v449h-71v67h71v45c0 59 15 103 45 133c27 27 64 40 111 40c36 0 60 -4 85 -13v-67c-28 8 -48 13 -75 13c-60 0 -90 -37 -90 -110v-42h164v-66h-163v-449h-77zM483 0v449h-71v67h71v45c0 59 15 104 44 133c28 27 65 40 111 40c36 0 61 -4 85 -13v-67
c-27 8 -47 13 -74 13c-60 0 -90 -37 -90 -110v-42h163v-66h-163v-449h-76z" />
    <glyph glyph-name="Omega" unicode="&#x2126;" horiz-adv-x="735" 
d="M115 0v449h-71v67h71v45c0 59 15 103 45 133c27 27 64 40 111 40c36 0 60 -4 85 -13v-67c-28 8 -48 13 -75 13c-60 0 -90 -37 -90 -110v-42h164v-66h-163v-449h-77zM483 0v449h-71v67h71v45c0 59 15 104 44 133c28 27 65 40 111 40c36 0 61 -4 85 -13v-67
c-27 8 -47 13 -74 13c-60 0 -90 -37 -90 -110v-42h163v-66h-163v-449h-76z" />
    <glyph glyph-name="ae" unicode="&#xe6;" horiz-adv-x="953" 
d="M251 51c91 0 138 39 186 92c-12 30 -19 62 -21 97c-39 11 -85 20 -144 20c-92 0 -147 -41 -147 -104v-2c0 -65 61 -103 126 -103zM493 289h333c-8 93 -64 174 -165 174c-88 0 -157 -74 -168 -174zM236 -11c-92 0 -189 54 -189 161v2c0 111 91 169 217 169
c61 0 102 -9 153 -22v16c0 93 -56 140 -148 140c-56 0 -105 -14 -153 -37l-23 63c57 27 112 44 184 44c93 0 162 -37 189 -112c41 69 113 115 198 115c152 0 240 -122 240 -274c0 -7 0 -15 -1 -27h-410c11 -109 91 -172 182 -172c72 0 120 29 163 73l48 -43
c-52 -59 -114 -97 -213 -97c-84 0 -158 39 -205 104c-56 -56 -145 -103 -232 -103z" />
    <glyph glyph-name="oslash" unicode="&#xf8;" horiz-adv-x="646" 
d="M324 56c113 0 191 91 191 200v2c0 47 -15 89 -39 122l-267 -283c31 -27 71 -41 115 -41zM170 136l268 283c-32 27 -71 42 -116 42c-112 0 -190 -92 -190 -201v-2c0 -47 14 -87 38 -122zM322 -12c-63 0 -117 20 -161 53l-45 -46h-77l79 85c-40 47 -64 109 -64 176v2
c0 147 113 270 270 270c63 0 118 -19 161 -54l45 49h78l-36 -38c-19 -20 -39 -41 -44 -48c41 -47 65 -109 65 -177v-2c0 -147 -115 -270 -271 -270z" />
    <glyph glyph-name="questiondown" unicode="&#xbf;" horiz-adv-x="537" 
d="M272 -9c-136 0 -224 84 -224 198v2c0 125 94 187 208 203l9 108h51l16 -162l-5 -5c-131 -3 -199 -57 -199 -141v-2c0 -72 55 -130 146 -130c73 0 130 34 181 94l51 -49c-57 -69 -127 -116 -234 -116zM246 595v105h92v-105h-92z" />
    <glyph glyph-name="exclamdown" unicode="&#xa1;" horiz-adv-x="271" 
d="M91 0v57l23 445h43l24 -445v-57h-90zM90 595v105h92v-105h-92z" />
    <glyph glyph-name="radical" unicode="&#x221a;" horiz-adv-x="998" 
d="M828 0v730h77v-730h-77zM115 0v449h-71v67h71v45c0 59 15 103 45 133c27 27 64 40 111 40c36 0 60 -4 85 -13v-67c-28 8 -48 13 -75 13c-60 0 -90 -37 -90 -110v-42h164v-66h-163v-449h-77zM483 0v449h-71v67h71v45c0 59 15 104 44 133c28 27 65 40 111 40
c36 0 61 -4 85 -13v-67c-27 8 -47 13 -74 13c-60 0 -90 -37 -90 -110v-42h163v-66h-163v-449h-76z" />
    <glyph glyph-name="florin" unicode="&#x192;" horiz-adv-x="514" 
d="M93 -5c-23 0 -37 1 -52 4v66c13 -3 27 -4 44 -4c43 0 69 23 78 76l44 236h-98v67h109l23 119c19 100 64 146 156 146c35 0 57 -3 81 -11v-66c-24 7 -48 10 -69 10c-52 0 -78 -26 -90 -90l-20 -108h144v-67h-156l-45 -244c-19 -93 -64 -134 -149 -134z" />
    <glyph glyph-name="approxequal" unicode="&#x2248;" horiz-adv-x="998" 
d="M828 0v517h77v-517h-77zM115 0v449h-71v67h71v45c0 59 15 103 45 133c27 27 64 40 111 40c36 0 60 -4 85 -13v-67c-28 8 -48 13 -75 13c-60 0 -90 -37 -90 -110v-42h164v-66h-163v-449h-77zM483 0v449h-71v67h71v45c0 59 15 104 44 133c28 27 65 40 111 40
c36 0 61 -4 85 -13v-67c-27 8 -47 13 -74 13c-60 0 -90 -37 -90 -110v-42h163v-66h-163v-449h-76zM823 630v85h87v-85h-87z" />
    <glyph glyph-name="guillemotleft" unicode="&#xab;" horiz-adv-x="550" 
d="M210 41l-162 214v8l162 213l59 -33l-135 -183l135 -185zM433 41l-162 214v8l162 213l58 -33l-135 -183l135 -185z" />
    <glyph glyph-name="guillemotright" unicode="&#xbb;" horiz-adv-x="550" 
d="M117 41l-58 33l135 184l-135 184l58 34l162 -213v-8zM340 41l-59 33l135 184l-135 184l59 34l162 -213v-8z" />
    <glyph glyph-name="ellipsis" unicode="&#x2026;" horiz-adv-x="723" 
d="M77 0v103h89v-103h-89zM317 0v103h89v-103h-89zM557 0v103h90v-103h-90z" />
    <glyph glyph-name="nbspace" unicode="&#xa0;" horiz-adv-x="300" 
 />
    <glyph glyph-name="Agrave" unicode="&#xc0;" 
d="M380 745l-79 75l56 26l67 -101h-44zM234 256h319l-159 357zM39 0l319 705h74l319 -705h-85l-82 185h-381l-83 -185h-81z" />
    <glyph glyph-name="Atilde" unicode="&#xc3;" 
d="M313 745l-33 9c15 53 32 74 67 74c31 0 70 -28 93 -28c19 0 26 9 37 34l33 -9c-15 -53 -34 -74 -67 -74c-32 0 -69 28 -94 28c-19 0 -25 -9 -36 -34zM234 256h319l-159 357zM39 0l319 705h74l319 -705h-85l-82 185h-381l-83 -185h-81z" />
    <glyph glyph-name="Otilde" unicode="&#xd5;" horiz-adv-x="850" 
d="M343 745l-33 9c15 53 32 74 67 74c31 0 70 -28 93 -28c19 0 26 9 37 34l33 -9c-15 -53 -34 -74 -67 -74c-32 0 -69 28 -94 28c-19 0 -25 -9 -36 -34zM426 61c160 0 274 128 274 287v2c0 159 -116 289 -276 289s-274 -128 -274 -287v-2c0 -159 116 -289 276 -289zM424 -12
c-213 0 -356 167 -356 360v2c0 193 145 362 358 362s356 -167 356 -360c1 -1 1 -1 0 -2c0 -193 -145 -362 -358 -362z" />
    <glyph glyph-name="OE" unicode="&#x152;" horiz-adv-x="1131" 
d="M440 73h138v554h-138c-177 0 -290 -119 -290 -275v-2c0 -155 113 -277 290 -277zM1071 0h-631c-220 0 -372 151 -372 348v2c0 197 152 350 372 350h626v-72h-409v-239h364v-72h-364v-245h414v-72z" />
    <glyph glyph-name="oe" unicode="&#x153;" horiz-adv-x="1049" 
d="M323 57c111 0 188 91 188 199v2c0 111 -82 202 -190 202c-111 0 -188 -91 -188 -200v-2c0 -111 82 -201 190 -201zM589 289h333c-8 93 -64 174 -165 174c-88 0 -157 -74 -168 -174zM319 -12c-149 0 -265 122 -265 268v2c0 147 116 270 268 270c101 0 183 -56 226 -137
c39 83 116 137 212 137c152 0 240 -122 240 -274c0 -7 0 -15 -1 -27h-410c11 -109 91 -172 182 -172c72 0 120 29 163 73l48 -43c-51 -59 -115 -97 -212 -97c-96 0 -180 52 -223 139c-43 -81 -125 -139 -228 -139z" />
    <glyph glyph-name="endash" unicode="&#x2013;" horiz-adv-x="528" 
d="M65 262v77h398v-77h-398z" />
    <glyph glyph-name="emdash" unicode="&#x2014;" horiz-adv-x="898" 
d="M65 262v77h768v-77h-768z" />
    <glyph glyph-name="quotedblleft" unicode="&#x201c;" horiz-adv-x="445" 
d="M72 478v90c0 81 34 120 110 137l12 -35c-51 -19 -70 -44 -67 -87h37v-105h-92zM272 478v90c0 81 34 120 110 137l12 -35c-51 -19 -70 -44 -67 -87h36v-105h-91z" />
    <glyph glyph-name="quotedblright" unicode="&#x201d;" horiz-adv-x="445" 
d="M63 473l-12 35c51 19 71 44 67 87h-36v105h92v-90c0 -81 -35 -120 -111 -137zM263 473l-12 35c51 19 71 44 67 87h-36v105h91v-90c0 -81 -34 -120 -110 -137z" />
    <glyph glyph-name="quoteleft" unicode="&#x2018;" horiz-adv-x="245" 
d="M72 478v90c0 81 34 120 110 137l12 -35c-51 -19 -70 -44 -67 -87h37v-105h-92z" />
    <glyph glyph-name="quoteright" unicode="&#x2019;" horiz-adv-x="245" 
d="M63 473l-12 35c51 19 71 44 67 87h-36v105h92v-90c0 -81 -35 -120 -111 -137z" />
    <glyph glyph-name="ydieresis" unicode="&#xff;" horiz-adv-x="591" 
d="M203 573v67h63v-67h-63zM326 573v67h63v-67h-63zM166 -163c-43 0 -75 9 -110 26l26 61c25 -13 48 -19 81 -19c47 0 75 24 106 97l-235 515h85l188 -431l166 431h82l-217 -534c-44 -107 -95 -146 -172 -146z" />
    <glyph glyph-name="Ydieresis" unicode="&#x178;" horiz-adv-x="716" 
d="M265 745v67h63v-67h-63zM388 745v67h63v-67h-63zM318 0v277l-291 423h96l236 -350l238 350h92l-291 -422v-278h-80z" />
    <glyph glyph-name="fraction" unicode="&#x2044;" horiz-adv-x="429" 
d="M-68 -98l467 856h76l-467 -856h-76z" />
    <glyph glyph-name="fraction" unicode="&#x2215;" horiz-adv-x="429" 
d="M-68 -98l467 856h76l-467 -856h-76z" />
    <glyph glyph-name="currency" unicode="&#xa4;" horiz-adv-x="720" 
d="M430 -12c-141 0 -249 101 -283 249h-91v63h81c-3 16 -2 31 -2 48v2c0 20 1 41 4 58h-83v62h94c38 140 141 242 275 242c118 0 188 -58 241 -137l-60 -43c-51 70 -98 109 -184 109c-89 0 -160 -70 -191 -171h257v-62h-270c-3 -16 -4 -37 -4 -56v-2c0 -19 1 -34 2 -50h272
v-63h-259c31 -108 104 -178 204 -178c79 0 130 44 178 115l57 -40c-56 -83 -124 -146 -238 -146z" />
    <glyph glyph-name="guilsinglleft" unicode="&#x2039;" horiz-adv-x="328" 
d="M210 41l-162 214v8l162 213l59 -33l-135 -183l135 -185z" />
    <glyph glyph-name="guilsinglright" unicode="&#x203a;" horiz-adv-x="328" 
d="M117 41l-58 33l135 184l-135 184l58 34l162 -213v-8z" />
    <glyph glyph-name="daggerdbl" unicode="&#x2021;" horiz-adv-x="430" 
d="M184 0l9 141l-123 -8v55l124 -8l-6 170l6 170l-124 -8v55l123 -8l-9 141h62l-9 -141l123 8v-55l-124 8l6 -170l-6 -170l124 8v-55l-123 8l9 -141h-62z" />
    <glyph glyph-name="periodcentered" unicode="&#xb7;" horiz-adv-x="245" 
d="M77 248v105h92v-105h-92z" />
    <glyph glyph-name="periodcentered" unicode="&#x2219;" horiz-adv-x="245" 
d="M77 248v105h92v-105h-92z" />
    <glyph glyph-name="quotesinglbase" unicode="&#x201a;" horiz-adv-x="245" 
d="M58 -122l-12 35c51 19 71 44 67 87h-36v105h92v-90c0 -81 -35 -120 -111 -137z" />
    <glyph glyph-name="quotedblbase" unicode="&#x201e;" horiz-adv-x="445" 
d="M58 -122l-12 35c51 19 71 44 67 87h-36v105h92v-90c0 -81 -35 -120 -111 -137zM258 -122l-12 35c51 19 71 44 67 87h-36v105h91v-90c0 -81 -34 -120 -110 -137z" />
    <glyph glyph-name="perthousand" unicode="&#x2030;" horiz-adv-x="1211" 
d="M624 48c55 0 91 54 91 121v2c0 69 -41 123 -93 123c-54 0 -91 -54 -91 -121v-2c0 -69 41 -123 93 -123zM1001 48c55 0 91 54 91 121v2c0 69 -41 123 -93 123c-54 0 -91 -54 -91 -121v-2c0 -69 41 -123 93 -123zM212 406c54 0 91 54 91 121v2c0 69 -42 123 -93 123
c-55 0 -91 -54 -91 -121v-2c0 -69 41 -123 93 -123zM622 -8c-93 0 -157 84 -157 177v2c0 95 64 179 159 179c96 0 157 -84 157 -177v-2c0 -95 -63 -179 -159 -179zM999 -8c-93 0 -157 84 -157 177v2c0 95 64 179 159 179c96 0 157 -84 157 -177v-2c0 -95 -63 -179 -159 -179
zM124 0l514 700h71l-513 -700h-72zM210 350c-95 0 -158 84 -158 177v2c0 95 64 179 160 179c93 0 157 -84 157 -177v-2c0 -95 -64 -179 -159 -179z" />
    <glyph glyph-name="Acircumflex" unicode="&#xc2;" 
d="M297 745l74 91h48l74 -91h-46l-53 47l-52 -47h-45zM234 256h319l-159 357zM39 0l319 705h74l319 -705h-85l-82 185h-381l-83 -185h-81z" />
    <glyph glyph-name="Ecircumflex" unicode="&#xca;" horiz-adv-x="670" 
d="M250 745l74 91h48l74 -91h-46l-53 47l-52 -47h-45zM99 0v700h506v-72h-427v-239h382v-72h-382v-245h432v-72h-511z" />
    <glyph glyph-name="Aacute" unicode="&#xc1;" 
d="M367 745l67 101l56 -26l-79 -75h-44zM234 256h319l-159 357zM39 0l319 705h74l319 -705h-85l-82 185h-381l-83 -185h-81z" />
    <glyph glyph-name="Edieresis" unicode="&#xcb;" horiz-adv-x="670" 
d="M255 745v67h63v-67h-63zM378 745v67h63v-67h-63zM99 0v700h506v-72h-427v-239h382v-72h-382v-245h432v-72h-511z" />
    <glyph glyph-name="Egrave" unicode="&#xc8;" horiz-adv-x="670" 
d="M332 745l-79 75l56 26l67 -101h-44zM99 0v700h506v-72h-427v-239h382v-72h-382v-245h432v-72h-511z" />
    <glyph glyph-name="Iacute" unicode="&#xcd;" horiz-adv-x="291" 
d="M114 745l67 101l56 -26l-79 -75h-44zM106 0v700h79v-700h-79z" />
    <glyph glyph-name="Icircumflex" unicode="&#xce;" horiz-adv-x="291" 
d="M6 762l106 131h68l106 -131h-66l-75 67l-75 -67h-64zM106 0v700h79v-700h-79z" />
    <glyph glyph-name="Idieresis" unicode="&#xcf;" horiz-adv-x="291" 
d="M53 744v67h63v-67h-63zM176 744v67h63v-67h-63zM106 0v700h79v-700h-79z" />
    <glyph glyph-name="Igrave" unicode="&#xcc;" horiz-adv-x="291" 
d="M131 745l-79 75l56 26l67 -101h-44zM106 0v700h79v-700h-79z" />
    <glyph glyph-name="Oacute" unicode="&#xd3;" horiz-adv-x="850" 
d="M400 746l67 101l56 -26l-79 -75h-44zM426 61c160 0 274 128 274 287v2c0 159 -116 289 -276 289s-274 -128 -274 -287v-2c0 -159 116 -289 276 -289zM424 -12c-213 0 -356 167 -356 360v2c0 193 145 362 358 362s356 -167 356 -360c1 -1 1 -1 0 -2
c0 -193 -145 -362 -358 -362z" />
    <glyph glyph-name="Ocircumflex" unicode="&#xd4;" horiz-adv-x="850" 
d="M327 745l74 91h48l74 -91h-46l-53 47l-52 -47h-45zM426 61c160 0 274 128 274 287v2c0 159 -116 289 -276 289s-274 -128 -274 -287v-2c0 -159 116 -289 276 -289zM424 -12c-213 0 -356 167 -356 360v2c0 193 145 362 358 362s356 -167 356 -360c1 -1 1 -1 0 -2
c0 -193 -145 -362 -358 -362z" />
    <glyph glyph-name="Ograve" unicode="&#xd2;" horiz-adv-x="850" 
d="M406 745l-79 75l56 26l67 -101h-44zM426 61c160 0 274 128 274 287v2c0 159 -116 289 -276 289s-274 -128 -274 -287v-2c0 -159 116 -289 276 -289zM424 -12c-213 0 -356 167 -356 360v2c0 193 145 362 358 362s356 -167 356 -360c1 -1 1 -1 0 -2
c0 -193 -145 -362 -358 -362z" />
    <glyph glyph-name="Uacute" unicode="&#xda;" horiz-adv-x="759" 
d="M347 745l67 101l56 -26l-79 -75h-44zM379 -11c-173 0 -291 106 -291 304v407h79v-402c0 -152 79 -236 214 -236c129 0 211 78 211 231v407h79v-401c0 -205 -117 -310 -292 -310z" />
    <glyph glyph-name="Ucircumflex" unicode="&#xdb;" horiz-adv-x="759" 
d="M239 759l106 131h68l106 -131h-66l-75 67l-75 -67h-64zM379 -11c-173 0 -291 106 -291 304v407h79v-402c0 -152 79 -236 214 -236c129 0 211 78 211 231v407h79v-401c0 -205 -117 -310 -292 -310z" />
    <glyph glyph-name="Ugrave" unicode="&#xd9;" horiz-adv-x="759" 
d="M368 745l-79 75l56 26l67 -101h-44zM379 -11c-173 0 -291 106 -291 304v407h79v-402c0 -152 79 -236 214 -236c129 0 211 78 211 231v407h79v-401c0 -205 -117 -310 -292 -310z" />
    <glyph glyph-name="dotlessi" unicode="&#x131;" horiz-adv-x="263" 
d="M93 0v517h77v-517h-77z" />
    <glyph glyph-name="circumflex" unicode="&#x2c6;" horiz-adv-x="500" 
d="M152 573l74 91h48l74 -91h-46l-53 47l-52 -47h-45z" />
    <glyph glyph-name="tilde" unicode="&#x2dc;" horiz-adv-x="500" 
d="M168 573l-33 9c15 53 32 74 67 74c31 0 70 -28 93 -28c19 0 26 9 37 34l33 -9c-15 -53 -34 -74 -67 -74c-32 0 -69 28 -94 28c-19 0 -25 -9 -36 -34z" />
    <glyph glyph-name="macron" unicode="&#xaf;" horiz-adv-x="500" 
d="M92 600v67h316v-67h-316z" />
    <glyph glyph-name="breve" unicode="&#x2d8;" horiz-adv-x="500" 
d="M250 573c-59 0 -99 34 -104 93h40c8 -29 28 -48 64 -48s56 19 64 48h40c-5 -59 -45 -93 -104 -93z" />
    <glyph glyph-name="dotaccent" unicode="&#x2d9;" horiz-adv-x="500" 
d="M217 575v68h66v-68h-66z" />
    <glyph glyph-name="ring" unicode="&#x2da;" horiz-adv-x="500" 
d="M250 631c33 0 62 28 62 61v2c0 33 -27 61 -62 61s-62 -28 -62 -61v-2c0 -33 29 -61 62 -61zM250 593c-55 0 -104 46 -104 99v2c0 53 49 99 104 99s104 -46 104 -99v-2c0 -53 -49 -99 -104 -99z" />
    <glyph glyph-name="cedilla" unicode="&#xb8;" horiz-adv-x="500" 
d="M225 -155l-75 34l90 131h61z" />
    <glyph glyph-name="hungarumlaut" unicode="&#x2dd;" horiz-adv-x="500" 
d="M84 595l95 145l75 -37l-108 -108h-62zM248 595l95 145l75 -37l-109 -108h-61z" />
    <glyph glyph-name="ogonek" unicode="&#x2db;" horiz-adv-x="500" 
d="M360 -123v-41c-117 -7 -177 40 -177 108c0 24 6 47 14 66h60c-4 -17 -6 -34 -6 -51c0 -51 33 -78 109 -82z" />
    <glyph glyph-name="caron" unicode="&#x2c7;" horiz-adv-x="500" 
d="M216 595l-106 131h66l75 -67l75 67h64l-106 -131h-68z" />
    <glyph glyph-name="Yacute" unicode="&#xdd;" horiz-adv-x="716" 
d="M355 744l67 101l56 -26l-79 -75h-44zM318 0v277l-291 423h96l236 -350l238 350h92l-291 -422v-278h-80z" />
    <glyph glyph-name="yacute" unicode="&#xfd;" horiz-adv-x="591" 
d="M294 575l67 101l56 -26l-79 -75h-44zM166 -163c-43 0 -75 9 -110 26l26 61c25 -13 48 -19 81 -19c47 0 75 24 106 97l-235 515h85l188 -431l166 431h82l-217 -534c-44 -107 -95 -146 -172 -146z" />
    <glyph glyph-name="apple" horiz-adv-x="967" 
d="M417 64c0 -9 -3 -17 -12 -17c-8 0 -12 8 -12 17c0 11 4 16 12 16s12 -5 12 -16zM352 74v-10h-3c-5 0 -8 3 -8 8c0 4 2 6 7 6c3 0 4 -1 4 -4zM553 79c3 0 3 -3 0 -9c-3 6 -3 9 0 9zM384 217l9 -35c0 -5 -1 -7 -4 -7h-5c-15 0 -26 16 -26 32c0 11 5 17 14 17h6
c4 -1 3 0 6 -7zM716 187c0 -9 -4 -13 -11 -13c-12 0 -25 18 -25 38c0 9 4 14 11 14c12 0 25 -18 25 -39zM280 200h-5c-11 0 -15 8 -15 15c0 6 3 9 8 9s8 -2 9 -5zM392 384h-11c-9 0 -13 4 -13 11s4 11 13 11h11v-22zM684 535c0 -9 -4 -13 -11 -13c-12 0 -25 18 -25 38
c0 9 4 14 11 14c12 0 25 -18 25 -39zM272 553c-2 -3 -4 -4 -7 -4s-4 1 -4 2c0 2 1 3 4 3s6 0 7 -1zM566 553c-2 -3 -4 -4 -7 -4s-4 1 -4 2c0 2 1 3 4 3s6 0 7 -1zM176 548h-5c-11 0 -15 8 -15 15c0 6 3 9 8 9s8 -2 9 -5zM441 -88c0 9 -4 13 -11 13s-11 -4 -11 -12
c0 -9 4 -13 11 -13s11 4 11 12zM800 -88c0 9 -4 13 -11 13s-11 -4 -11 -12c0 -9 4 -13 11 -13s11 4 11 12zM564 -92l-5 12l-5 -12h10zM394 -83c0 5 -4 8 -11 7v-13c7 0 11 2 11 6zM525 -82c0 5 -4 7 -11 6v-12c7 -1 11 1 11 6zM606 -83c0 5 -4 8 -11 7v-13c7 0 11 2 11 6z
M309 46v2c-1 0 -2 0 -3 1c-2 1 -3 2 -3 5v20c0 1 1 3 3 4c1 1 2 1 3 1v2h-18v-2c1 0 2 0 3 -1c2 -2 3 -3 3 -4v-9c-1 0 -3 1 -4 2l-8 8c-2 1 -2 2 -1 3s1 1 2 1v2h-14v-2c1 0 2 0 3 -1c3 -1 2 -2 5 -3l10 -9l-13 -13l-4 -3l-3 -2v-2h17v2c-1 0 -2 0 -3 1s0 2 1 4l8 8
c1 1 3 2 4 2v-9c0 -1 -1 -3 -3 -5c-1 -1 -2 -1 -3 -1v-2h18zM364 46v2c-1 0 -2 0 -3 1s-2 3 -2 4v20c0 2 1 4 2 5s2 1 3 1v2h-18c-9 0 -13 -3 -13 -9c0 -3 3 -6 9 -9l-7 -10c-3 -3 -5 -3 -6 -4l-2 -1v-2h11l7 12c2 3 4 4 7 4v-9c0 -3 -2 -3 -3 -4s-1 -1 -2 -1v-2h17zM425 64
c0 11 -7 18 -20 18s-20 -7 -20 -18s7 -19 20 -19s20 8 20 19zM480 79v2h-15v-2c1 0 1 0 2 -1s0 -2 -1 -4l-6 -9l-6 9c-1 1 -1 3 0 4s2 1 3 1v2h-15v-2c1 0 2 0 3 -1l5 -4l8 -12v-8c0 -1 -1 -3 -3 -5c-1 -1 -1 -1 -2 -1v-2h17v2c-1 0 -2 0 -3 1s-2 3 -2 5v8l8 12c1 3 4 3 5 4
s1 1 2 1zM583 81h-15v-2c1 0 1 0 2 -1s1 -2 0 -4l-9 -19l-5 10l4 8c1 3 3 3 4 4l2 2v2h-26l1 -2c1 0 1 0 2 -1l5 -5l3 -5l-7 -13l-8 18c-1 2 -1 4 0 5s1 1 2 1v2h-13v-2c1 0 1 0 2 -1l4 -5l13 -27h1c1 -1 1 -1 1 0l8 16l9 -16h1l12 27c1 3 4 4 5 5s1 1 2 1v2zM633 46v2
c-1 -1 -2 -1 -3 0c-1 0 -2 2 -2 5v21c0 2 1 4 2 5h3v2h-29l-2 -10l2 -1c0 1 1 3 2 4c1 3 4 4 7 4h4c3 0 4 -1 4 -3v-10h-4c-2 0 -4 1 -5 2s-1 2 -1 3h-2v-13h2c0 1 0 2 1 3c2 2 4 3 5 3h4v-11c0 -2 -1 -3 -4 -3h-4c-3 0 -5 1 -8 4c-1 1 -2 3 -2 5l-2 -1l2 -11h30zM694 46v2
c-1 0 -2 0 -3 1c-2 1 -3 2 -3 4v20c0 1 1 3 3 4l3 2v2h-10l-24 -26v18c0 2 1 4 3 5c1 1 2 1 3 1v2h-15v-2c1 0 2 0 3 -1c2 -2 3 -4 3 -5v-28h3l25 28v-20c0 -1 -1 -2 -3 -4c-1 -1 -1 -1 -2 -1v-2h14zM827 127v6h-685v-6h685zM307 171l-1 3c-1 0 -3 0 -4 1c-3 1 -5 2 -6 7
l-7 35c-1 3 0 6 3 7c1 1 3 1 4 1l-1 3h-27c-13 0 -20 -5 -20 -15c0 -8 8 -14 19 -15l-9 -16c-3 -5 -6 -6 -9 -7c-2 -1 -4 -1 -5 -1l1 -3h19l12 23c1 2 2 3 5 3l3 -15c1 -3 0 -6 -3 -7c-1 -1 -3 -1 -4 -1l1 -3h29zM414 171l-1 4c-1 -1 -3 -1 -4 0c-3 1 -5 4 -6 9l-8 31
c-2 6 1 9 8 10l-1 3h-30c-12 0 -25 -7 -25 -22c0 -21 18 -35 35 -35h32zM523 171l-1 3c-1 0 -2 0 -3 1c-3 1 -5 4 -6 9l-7 32c-1 4 0 7 3 8c1 1 3 1 5 1l-1 3h-14l-29 -42l-5 30c-1 4 0 7 3 8c1 1 3 1 4 1l-1 3h-21l1 -3c1 0 3 0 4 -1c2 -1 4 -4 5 -8l8 -45l3 -1l30 44
l6 -30c1 -5 0 -8 -2 -9c-1 -1 -3 -1 -4 -1l1 -3h21zM621 225l-1 3h-29l1 -3c1 0 3 0 4 -1c3 -1 5 -4 6 -8l5 -21c3 -13 4 -20 -11 -20c-11 0 -17 10 -20 22l-4 19c-1 5 0 8 3 9c1 1 3 1 4 0v3h-24l1 -3c1 0 3 0 5 -1c3 -1 5 -4 6 -8l4 -19c3 -11 9 -27 28 -27
c23 0 22 13 19 24l-5 22c-3 5 0 8 3 9c1 1 3 1 5 0zM823 171l-1 3c-1 0 -3 0 -4 1c-3 1 -5 2 -6 7l-7 35c-1 3 0 6 3 7c1 1 3 1 4 1l-1 3h-45v-10v-7h4c-1 2 0 4 1 6c1 5 5 7 12 7h4c3 0 5 -2 6 -6l3 -16h-4c-3 0 -6 1 -9 4l-3 5h-3l5 -23h3c0 1 0 3 1 5c1 4 4 6 7 6h4
l3 -17c1 -3 0 -6 -3 -7c-1 -1 -3 -1 -4 -1l1 -3h29zM201 215l2 2c-4 7 -7 13 -18 13c-10 0 -15 -8 -14 -23c-4 13 -10 23 -21 23c-7 0 -12 -4 -12 -12l3 -1c0 4 3 6 8 6c13 0 20 -17 24 -33c3 -9 1 -11 -2 -14c-1 -1 -3 -2 -4 -1l1 -4h28l-1 4c-1 -1 -3 -1 -4 0
c-3 1 -5 4 -6 9c-3 11 -5 20 -5 25c0 9 3 13 9 13c7 0 9 -4 12 -7zM728 192c0 20 -18 38 -37 38c-9 0 -23 -6 -23 -22c0 -21 18 -38 37 -38c9 0 23 6 23 22zM827 271v6h-685v-6h685zM283 308v33h-14v65h14v34h-141v-62h41v28h33v-20h-24v-24h24v-21h-33v28h-41v-61h141z
M458 308v33h-14v65h14v34h-96c-29 0 -47 -17 -47 -40s18 -40 47 -40h30v-19h-15v-33h81zM648 406v34h-81v-34h11l-15 -23l-15 23h10v34h-62v-34h12l37 -46v-19h-14v-33h81v33h-15v20l37 45h14zM827 378v62h-147v-62h36v28h11v-65h-14v-33h81v33h-14v65h11v-28h36zM827 475v6
h-685v-6h685zM400 521c0 3 -4 8 -13 9c-10 7 2 48 -29 48c-7 0 -13 -6 -13 -10c0 -3 2 -5 5 -5s4 2 4 6s2 6 5 6c12 0 5 -29 21 -45c-15 0 -16 -13 -23 -13c-3 0 -5 1 -5 4s2 2 2 5s-2 5 -5 5s-5 -2 -5 -7c0 -7 8 -12 15 -12c17 0 14 13 25 13c2 -5 6 -7 12 -7c3 0 4 1 4 3z
M203 519l-1 3c-1 0 -3 0 -4 1c-3 1 -5 2 -6 7l-7 35c-1 3 0 6 3 7c1 1 3 1 4 1l-1 3h-27c-13 0 -20 -5 -20 -15c0 -8 8 -14 19 -15l-9 -16c-3 -5 -6 -6 -9 -7c-2 -1 -4 -1 -5 -1l1 -3h19l12 23c1 2 2 3 5 3l3 -15c1 -3 0 -6 -3 -7c-1 -1 -3 -1 -4 -1l1 -3h29zM498 519l-1 3
c-1 0 -3 0 -4 1c-3 1 -5 2 -6 7l-7 35c-1 3 0 6 3 7c1 1 3 1 4 1l-1 3h-45v-10v-7h4c-1 2 0 4 1 6c1 5 5 7 12 7h4c3 0 5 -2 6 -6l3 -16h-4c-3 0 -6 1 -9 4l-3 5h-3l5 -23h3c0 1 0 3 1 5c1 4 4 6 7 6h4l3 -17c1 -3 0 -6 -3 -7c-1 -1 -3 -1 -4 -1l1 -3h29zM821 519l-1 3
c-1 0 -3 0 -4 1c-3 1 -5 2 -6 7l-7 35c-1 3 0 6 3 7c1 1 3 1 4 1l-1 3h-28l1 -3c1 0 3 0 4 -1c3 -1 4 -4 5 -7l3 -15h-24l-3 15c-1 3 0 6 3 7c1 1 3 1 4 1l-1 3h-29l1 -3c1 0 3 0 4 -1c3 -1 5 -4 6 -7l7 -35c1 -3 0 -6 -3 -7c-1 -1 -3 -1 -4 -1l1 -3h29l-1 3c-1 0 -3 0 -4 1
c-3 1 -5 2 -6 7l-3 16h24l3 -16c1 -3 0 -6 -3 -7c-1 -1 -3 -1 -4 -1l1 -3h29zM295 537c0 8 -5 14 -14 17c3 2 5 5 5 9c0 7 -6 15 -21 15c-9 0 -13 -4 -13 -11c0 -4 2 -6 5 -6s4 1 4 3c0 4 -3 3 -3 6s2 5 7 5c7 0 10 -4 10 -12c0 -3 -1 -5 -2 -6c-11 1 -16 -1 -16 -6
c0 -4 3 -6 8 -6c4 0 8 2 11 5c4 -3 6 -8 6 -15c0 -9 -4 -14 -12 -14s-12 3 -12 9c0 2 1 3 3 3c1 0 2 -2 5 -2s4 2 4 5s-2 5 -7 5c-6 0 -9 -3 -9 -10c0 -9 5 -13 16 -13c17 0 25 8 25 19zM589 537c0 8 -5 14 -14 17c3 2 5 5 5 9c0 7 -6 15 -21 15c-9 0 -13 -4 -13 -11
c0 -4 2 -6 5 -6s4 1 4 3c0 4 -3 3 -3 6s2 5 7 5c7 0 10 -4 10 -12c0 -3 -1 -5 -2 -6c-11 1 -16 -1 -16 -6c0 -4 3 -6 8 -6c4 0 8 2 11 5c4 -3 6 -8 6 -15c0 -9 -4 -14 -12 -14s-12 3 -12 9c0 2 1 3 3 3c1 0 2 -2 5 -2s4 2 4 5s-2 5 -7 5c-6 0 -9 -3 -9 -10
c0 -9 5 -13 16 -13c17 0 25 8 25 19zM696 540c0 20 -18 38 -37 38c-9 0 -23 -6 -23 -22c0 -21 18 -38 37 -38c9 0 23 6 23 22zM827 618v6h-685v-6h685zM439 662v2c-1 -1 -2 -1 -3 0c-1 0 -2 2 -2 5v21c0 2 1 4 2 5h3v2h-29l-2 -10l2 -1c0 1 1 3 2 4c1 3 4 4 7 4h4
c3 0 4 -1 4 -3v-10h-4c-2 0 -4 1 -5 2s-1 2 -1 3h-2v-13h2c0 1 0 2 1 3c2 2 4 3 5 3h4v-11c0 -2 -1 -3 -4 -3h-4c-3 0 -5 1 -8 4c-1 1 -2 3 -2 5l-2 -1l2 -11h30zM504 662v2c-1 -1 -2 -1 -3 0c-2 0 -3 2 -3 5v21c0 2 1 4 3 5h3v2h-18v-1v-1h2c2 -2 3 -4 3 -5v-9h-17v9
c0 2 1 4 2 5h3v1v1h-17v-2h2c2 -2 3 -4 3 -5v-21c0 -3 -2 -3 -3 -4s-1 -1 -2 -1v-2h17v2c-1 0 -2 0 -3 1s-2 3 -2 4v10h17v-10c0 -3 -1 -5 -3 -5c-1 -1 -1 -1 -2 0v-2h18zM557 686h2v4c0 3 -1 5 -1 8c-1 -1 -7 -1 -17 -1s-16 0 -18 1c0 -3 -1 -5 -1 -8v-4h2l3 4c3 3 6 5 7 5
c2 0 3 -1 3 -3v-23c0 -3 -1 -5 -3 -5c-1 -1 -1 -1 -2 0v-2h17v2c-1 -1 -2 -1 -3 0c-1 0 -2 2 -2 5v23c0 2 1 3 3 3s5 -2 8 -5c1 -1 2 -3 2 -4zM284 -101c0 -3 -1 -4 -4 -4s-4 1 -4 4s1 4 4 4s4 -1 4 -4zM716 -101c0 -3 -1 -4 -4 -4s-4 1 -4 4s1 4 4 4s4 -1 4 -4zM155 -71
l-12 -34h-1l-11 23l-10 -23h-1l-12 34l6 1l7 -23l10 23h1l10 -23l7 22h6zM211 -71l-12 -34h-1l-11 23l-10 -23h-1l-12 34l6 1l7 -23l10 23h1l10 -23l7 22h6zM267 -71l-12 -34h-1l-11 23l-10 -23h-1l-12 34l6 1l7 -23l10 23h1l10 -23l7 22h6zM323 -71v-5h-12v-28h-6v28h-12v5
h30zM364 -71l-13 -19v-14h-6v14l-14 19l6 1l11 -15l9 14h7zM400 -82c0 -8 -6 -12 -17 -12v-10h-6v33c19 3 23 -4 23 -11zM447 -87c0 -11 -6 -18 -17 -18s-17 8 -17 17c0 11 7 18 18 18c9 0 16 -8 16 -17zM491 -86v-15c-4 -3 -8 -4 -13 -4c-11 0 -18 6 -18 17s8 18 19 18
c4 0 8 -1 12 -4l-2 -5c-3 3 -6 4 -11 4c-8 0 -12 -4 -12 -13c0 -8 4 -12 13 -12c1 0 3 1 6 2v7h-9v5h15zM534 -104h-7l-8 11h-5v-11h-6v33c19 3 23 -3 23 -10c0 -5 -2 -8 -7 -10zM576 -104h-6l-4 8h-14l-3 -8h-6l15 34h2zM612 -82c0 -8 -6 -12 -17 -12v-10h-6v33
c19 3 23 -4 23 -11zM656 -104h-6v15h-16v-15h-6v33h6v-13h16v13h6v-33zM702 -71l-13 -19v-14h-6v14l-14 19l6 1l11 -15l9 14h7zM758 -96l-1 -6c-2 -2 -5 -3 -10 -3c-12 0 -18 6 -18 17s7 18 18 18c4 0 8 -1 11 -3l-2 -5c-2 2 -5 3 -9 3c-7 0 -12 -5 -12 -12
c0 -9 4 -13 13 -13c3 0 6 1 10 4zM806 -87c0 -11 -6 -18 -17 -18s-17 8 -17 17c0 11 7 18 18 18c9 0 16 -8 16 -17zM859 -104h-6l-3 20l-10 -21h-2l-10 21l-3 -20h-6l6 34h1l13 -26l13 26h1zM868 0h-767v750h767v-750z" />
    <glyph glyph-name="Eth" unicode="&#xd0;" horiz-adv-x="812" 
d="M208 73h164c177 0 290 119 290 275v2c0 155 -113 277 -290 277h-164v-239h210v-72h-210v-243zM129 0v316h-75v72h75v312h243c220 0 372 -151 372 -348v-2c0 -197 -152 -350 -372 -350h-243z" />
    <glyph glyph-name="Abreve" unicode="&#x102;" 
d="M234 256h319l-159 357zM39 0l319 705h74l319 -705h-85l-82 185h-381l-83 -185h-81zM394 744c-59 0 -99 34 -104 93h40c8 -29 28 -48 64 -48s56 19 64 48h40c-5 -59 -45 -93 -104 -93z" />
    <glyph glyph-name="abreve" unicode="&#x103;" horiz-adv-x="579" 
d="M255 51c95 0 172 56 172 139v48c-39 11 -87 22 -151 22c-96 0 -151 -41 -151 -104v-2c0 -65 61 -103 130 -103zM240 -11c-97 0 -193 54 -193 161v2c0 111 90 169 221 169c67 0 111 -9 158 -22v16c0 92 -56 140 -153 140c-61 0 -109 -14 -157 -37l-23 63
c57 27 112 44 188 44c73 0 129 -19 167 -57c36 -36 54 -87 54 -152v-316h-76v77c-36 -47 -95 -88 -186 -88zM289 570c-59 0 -99 34 -104 93h40c8 -29 28 -48 64 -48s56 19 64 48h40c-5 -59 -45 -93 -104 -93z" />
    <glyph glyph-name="dcroat" unicode="&#x111;" horiz-adv-x="664" 
d="M393 567v47h108v116h77v-116h61v-47h-61v-567h-77v104c-43 -62 -102 -115 -198 -115c-124 0 -247 98 -247 268v2c0 168 123 269 247 269c96 0 158 -51 198 -110v149h-108zM317 58c96 0 187 81 187 200v2c0 119 -91 199 -187 199c-100 0 -182 -74 -182 -199v-2
c0 -123 83 -200 182 -200z" />
    <glyph glyph-name="Itilde" unicode="&#x128;" horiz-adv-x="291" 
d="M106 0v700h79v-700h-79zM64 746l-33 9c15 53 32 74 67 74c31 0 70 -28 93 -28c19 0 26 9 37 34l33 -9c-15 -53 -34 -74 -67 -74c-32 0 -69 28 -94 28c-19 0 -25 -9 -36 -34z" />
    <glyph glyph-name="itilde" unicode="&#x129;" horiz-adv-x="263" 
d="M93 0v517h77v-517h-77zM50 573l-33 9c15 53 32 74 67 74c31 0 70 -28 93 -28c19 0 26 9 37 34l33 -9c-15 -53 -34 -74 -67 -74c-32 0 -69 28 -94 28c-19 0 -25 -9 -36 -34z" />
    <glyph glyph-name="Utilde" unicode="&#x168;" horiz-adv-x="759" 
d="M379 -11c-173 0 -291 106 -291 304v407h79v-402c0 -152 79 -236 214 -236c129 0 211 78 211 231v407h79v-401c0 -205 -117 -310 -292 -310zM313 745l-33 9c15 53 32 74 67 74c31 0 70 -28 93 -28c19 0 26 9 37 34l33 -9c-15 -53 -34 -74 -67 -74c-32 0 -69 28 -94 28
c-19 0 -25 -9 -36 -34z" />
    <glyph glyph-name="utilde" unicode="&#x169;" horiz-adv-x="616" 
d="M276 -11c-124 0 -198 84 -198 207v321h77v-302c0 -96 51 -156 143 -156c88 0 155 65 155 162v296h76v-517h-76v90c-35 -56 -88 -101 -177 -101zM230 573l-33 9c15 53 32 74 67 74c31 0 70 -28 93 -28c19 0 26 9 37 34l33 -9c-15 -53 -34 -74 -67 -74c-32 0 -69 28 -94 28
c-19 0 -25 -9 -36 -34z" />
    <glyph glyph-name="Ohorn" unicode="&#x1a0;" horiz-adv-x="850" 
d="M424 -12c-213 0 -356 167 -356 360v2c0 193 145 362 358 362c53 0 102 -10 145 -29c16 -7 31 -15 45 -23c10 13 14 26 13 41h-25v62h65v-51c0 -29 -9 -52 -26 -71c15 -11 28 -24 41 -37c63 -65 98 -156 98 -252c1 -1 1 -1 0 -2c0 -193 -145 -362 -358 -362zM426 61
c160 0 274 128 274 287v2c0 159 -116 289 -276 289s-274 -128 -274 -287v-2c0 -159 116 -289 276 -289z" />
    <glyph glyph-name="ohorn" unicode="&#x1a1;" horiz-adv-x="646" 
d="M322 -12c-155 0 -268 122 -268 268v2c0 147 113 270 270 270c39 0 74 -7 107 -22c23 -10 44 -22 62 -37c9 7 25 20 22 49h-25v62h65v-51c0 -29 -8 -51 -23 -68c-5 -5 -10 -9 -15 -13c48 -48 76 -115 76 -188v-2c0 -147 -115 -270 -271 -270zM324 57c112 0 190 91 190 199
v2c0 111 -83 202 -192 202c-112 0 -189 -91 -189 -200v-2c0 -111 82 -201 191 -201z" />
    <glyph glyph-name="Uhorn" unicode="&#x1af;" horiz-adv-x="759" 
d="M379 -11c-173 0 -291 106 -291 304v407h79v-402c0 -152 79 -236 214 -236c129 0 211 78 211 231v407h79v-61c32 9 50 32 47 61h-25v62h65v-51c0 -57 -31 -90 -87 -98v-314c0 -205 -117 -310 -292 -310z" />
    <glyph glyph-name="uhorn" unicode="&#x1b0;" horiz-adv-x="616" 
d="M276 -11c-124 0 -198 84 -198 207v321h77v-302c0 -96 51 -156 143 -156c88 0 155 65 155 162v296h76v-60c15 5 27 13 35 23c9 11 12 23 11 38h-25v62h65v-51c0 -29 -8 -51 -23 -68c-14 -15 -35 -25 -63 -30v-431h-76v90c-35 -56 -88 -101 -177 -101z" />
    <glyph glyph-name="Dcroat" unicode="&#x110;" horiz-adv-x="812" 
d="M208 73h164c177 0 290 119 290 275v2c0 155 -113 277 -290 277h-164v-239h210v-72h-210v-243zM129 0v316h-75v72h75v312h243c220 0 372 -151 372 -348v-2c0 -197 -152 -350 -372 -350h-243z" />
    <glyph glyph-name="uni1EA0" unicode="&#x1ea0;" 
d="M234 256h319l-159 357zM39 0l319 705h74l319 -705h-85l-82 185h-381l-83 -185h-81zM369 -95v48h46v-48h-46z" />
    <glyph glyph-name="uni1EA1" unicode="&#x1ea1;" horiz-adv-x="579" 
d="M255 51c95 0 172 56 172 139v48c-39 11 -87 22 -151 22c-96 0 -151 -41 -151 -104v-2c0 -65 61 -103 130 -103zM240 -11c-97 0 -193 54 -193 161v2c0 111 90 169 221 169c67 0 111 -9 158 -22v16c0 92 -56 140 -153 140c-61 0 -109 -14 -157 -37l-23 63
c57 27 112 44 188 44c73 0 129 -19 167 -57c36 -36 54 -87 54 -152v-316h-76v77c-36 -47 -95 -88 -186 -88zM265 -95v48h46v-48h-46z" />
    <glyph glyph-name="uni1EA2" unicode="&#x1ea2;" 
d="M553 256h-319l160 357zM358 705l-319 -705h81l83 185h381l82 -185h85l-319 705h-74zM410 737l-32 9c11 29 36 36 36 58c0 14 -9 23 -23 23s-26 -13 -35 -25l-23 14c13 25 34 47 70 47c32 0 58 -22 58 -51c0 -35 -32 -43 -51 -75z" />
    <glyph glyph-name="uni1EA3" unicode="&#x1ea3;" horiz-adv-x="579" 
d="M255 51c-69 0 -130 38 -130 103v2c0 63 55 104 151 104c64 0 112 -11 151 -22v-48c0 -83 -77 -139 -172 -139zM240 -11c91 0 150 41 186 88v-77h76v316c0 65 -18 116 -54 152c-38 38 -94 57 -167 57c-76 0 -131 -17 -188 -44l23 -63c48 23 96 37 157 37
c97 0 153 -48 153 -140v-16c-47 13 -91 22 -158 22c-131 0 -221 -58 -221 -169v-2c0 -107 96 -161 193 -161zM297 567l-33 8c9 31 40 41 40 67c0 14 -10 23 -23 23c-16 0 -26 -12 -35 -25l-24 15c13 25 34 46 69 46c34 0 60 -21 60 -52c0 -39 -38 -50 -54 -82z" />
    <glyph glyph-name="uni1EA4" unicode="&#x1ea4;" 
d="M297 745l74 91h48l74 -91h-46l-53 47l-52 -47h-45zM234 256h319l-159 357zM39 0l319 705h74l319 -705h-85l-82 185h-381l-83 -185h-81zM468 792l67 101l56 -26l-79 -75h-44z" />
    <glyph glyph-name="uni1EA5" unicode="&#x1ea5;" horiz-adv-x="579" 
d="M193 573l74 91h48l74 -91h-46l-53 47l-52 -47h-45zM255 51c95 0 172 56 172 139v48c-39 11 -87 22 -151 22c-96 0 -151 -41 -151 -104v-2c0 -65 61 -103 130 -103zM240 -11c-97 0 -193 54 -193 161v2c0 111 90 169 221 169c67 0 111 -9 158 -22v16c0 92 -56 140 -153 140
c-61 0 -109 -14 -157 -37l-23 63c57 27 112 44 188 44c73 0 129 -19 167 -57c36 -36 54 -87 54 -152v-316h-76v77c-36 -47 -95 -88 -186 -88zM362 622l67 101l56 -26l-79 -75h-44z" />
    <glyph glyph-name="uni1EA6" unicode="&#x1ea6;" 
d="M297 745l74 91h48l74 -91h-46l-53 47l-52 -47h-45zM234 256h319l-159 357zM39 0l319 705h74l319 -705h-85l-82 185h-381l-83 -185h-81zM501 792l-79 75l56 26l67 -101h-44z" />
    <glyph glyph-name="uni1EA7" unicode="&#x1ea7;" horiz-adv-x="579" 
d="M193 573l74 91h48l74 -91h-46l-53 47l-52 -47h-45zM255 51c95 0 172 56 172 139v48c-39 11 -87 22 -151 22c-96 0 -151 -41 -151 -104v-2c0 -65 61 -103 130 -103zM240 -11c-97 0 -193 54 -193 161v2c0 111 90 169 221 169c67 0 111 -9 158 -22v16c0 92 -56 140 -153 140
c-61 0 -109 -14 -157 -37l-23 63c57 27 112 44 188 44c73 0 129 -19 167 -57c36 -36 54 -87 54 -152v-316h-76v77c-36 -47 -95 -88 -186 -88zM401 620l-79 75l56 26l67 -101h-44z" />
    <glyph glyph-name="uni1EA8" unicode="&#x1ea8;" 
d="M371 836l-74 -91h45l52 47l53 -47h46l-74 91h-48zM553 256h-319l160 357zM358 705l-319 -705h81l83 185h381l82 -185h85l-319 705h-74zM492 799l-32 9c11 29 36 36 36 58c0 14 -9 23 -23 23s-26 -13 -35 -25l-23 14c13 25 34 47 70 47c32 0 58 -22 58 -51
c0 -35 -32 -43 -51 -75z" />
    <glyph glyph-name="uni1EA9" unicode="&#x1ea9;" horiz-adv-x="579" 
d="M267 664l-74 -91h45l52 47l53 -47h46l-74 91h-48zM255 51c-69 0 -130 38 -130 103v2c0 63 55 104 151 104c64 0 112 -11 151 -22v-48c0 -83 -77 -139 -172 -139zM240 -11c91 0 150 41 186 88v-77h76v316c0 65 -18 116 -54 152c-38 38 -94 57 -167 57
c-76 0 -131 -17 -188 -44l23 -63c48 23 96 37 157 37c97 0 153 -48 153 -140v-16c-47 13 -91 22 -158 22c-131 0 -221 -58 -221 -169v-2c0 -107 96 -161 193 -161zM389 631l-33 8c9 31 40 41 40 67c0 14 -10 23 -23 23c-16 0 -26 -12 -35 -25l-24 15c13 25 34 46 69 46
c34 0 60 -21 60 -52c0 -39 -38 -50 -54 -82z" />
    <glyph glyph-name="uni1EAA" unicode="&#x1eaa;" 
d="M297 745l74 91h48l74 -91h-46l-53 47l-52 -47h-45zM234 256h319l-159 357zM39 0l319 705h74l319 -705h-85l-82 185h-381l-83 -185h-81zM313 841l-33 9c15 53 32 74 67 74c31 0 70 -28 93 -28c19 0 26 9 37 34l33 -9c-15 -53 -34 -74 -67 -74c-32 0 -69 28 -94 28
c-19 0 -25 -9 -36 -34z" />
    <glyph glyph-name="uni1EAB" unicode="&#x1eab;" horiz-adv-x="579" 
d="M193 573l74 91h48l74 -91h-46l-53 47l-52 -47h-45zM255 51c95 0 172 56 172 139v48c-39 11 -87 22 -151 22c-96 0 -151 -41 -151 -104v-2c0 -65 61 -103 130 -103zM240 -11c-97 0 -193 54 -193 161v2c0 111 90 169 221 169c67 0 111 -9 158 -22v16c0 92 -56 140 -153 140
c-61 0 -109 -14 -157 -37l-23 63c57 27 112 44 188 44c73 0 129 -19 167 -57c36 -36 54 -87 54 -152v-316h-76v77c-36 -47 -95 -88 -186 -88zM207 670l-33 9c15 53 32 74 67 74c31 0 70 -28 93 -28c19 0 26 9 37 34l33 -9c-15 -53 -34 -74 -67 -74c-32 0 -69 28 -94 28
c-19 0 -25 -9 -36 -34z" />
    <glyph glyph-name="uni1EAC" unicode="&#x1eac;" 
d="M234 256h319l-159 357zM39 0l319 705h74l319 -705h-85l-82 185h-381l-83 -185h-81zM297 754l74 91h48l74 -91h-46l-53 47l-52 -47h-45zM373 -95v48h46v-48h-46z" />
    <glyph glyph-name="uni1EAD" unicode="&#x1ead;" horiz-adv-x="579" 
d="M255 51c95 0 172 56 172 139v48c-39 11 -87 22 -151 22c-96 0 -151 -41 -151 -104v-2c0 -65 61 -103 130 -103zM240 -11c-97 0 -193 54 -193 161v2c0 111 90 169 221 169c67 0 111 -9 158 -22v16c0 92 -56 140 -153 140c-61 0 -109 -14 -157 -37l-23 63
c57 27 112 44 188 44c73 0 129 -19 167 -57c36 -36 54 -87 54 -152v-316h-76v77c-36 -47 -95 -88 -186 -88zM191 573l74 91h48l74 -91h-46l-53 47l-52 -47h-45zM265 -95v48h46v-48h-46z" />
    <glyph glyph-name="uni1EAE" unicode="&#x1eae;" 
d="M234 256h319l-159 357zM39 0l319 705h74l319 -705h-85l-82 185h-381l-83 -185h-81zM394 744c-59 0 -99 34 -104 93h40c8 -29 28 -48 64 -48s56 19 64 48h40c-5 -59 -45 -93 -104 -93zM365 815l67 101l56 -26l-79 -75h-44z" />
    <glyph glyph-name="uni1EAF" unicode="&#x1eaf;" horiz-adv-x="579" 
d="M255 51c95 0 172 56 172 139v48c-39 11 -87 22 -151 22c-96 0 -151 -41 -151 -104v-2c0 -65 61 -103 130 -103zM240 -11c-97 0 -193 54 -193 161v2c0 111 90 169 221 169c67 0 111 -9 158 -22v16c0 92 -56 140 -153 140c-61 0 -109 -14 -157 -37l-23 63
c57 27 112 44 188 44c73 0 129 -19 167 -57c36 -36 54 -87 54 -152v-316h-76v77c-36 -47 -95 -88 -186 -88zM289 570c-59 0 -99 34 -104 93h40c8 -29 28 -48 64 -48s56 19 64 48h40c-5 -59 -45 -93 -104 -93zM262 643l67 101l56 -26l-79 -75h-44z" />
    <glyph glyph-name="uni1EB0" unicode="&#x1eb0;" 
d="M234 256h319l-159 357zM39 0l319 705h74l319 -705h-85l-82 185h-381l-83 -185h-81zM394 744c-59 0 -99 34 -104 93h40c8 -29 28 -48 64 -48s56 19 64 48h40c-5 -59 -45 -93 -104 -93zM382 817l-79 75l56 26l67 -101h-44z" />
    <glyph glyph-name="uni1EB1" unicode="&#x1eb1;" horiz-adv-x="579" 
d="M255 51c95 0 172 56 172 139v48c-39 11 -87 22 -151 22c-96 0 -151 -41 -151 -104v-2c0 -65 61 -103 130 -103zM240 -11c-97 0 -193 54 -193 161v2c0 111 90 169 221 169c67 0 111 -9 158 -22v16c0 92 -56 140 -153 140c-61 0 -109 -14 -157 -37l-23 63
c57 27 112 44 188 44c73 0 129 -19 167 -57c36 -36 54 -87 54 -152v-316h-76v77c-36 -47 -95 -88 -186 -88zM289 570c-59 0 -99 34 -104 93h40c8 -29 28 -48 64 -48s56 19 64 48h40c-5 -59 -45 -93 -104 -93zM278 643l-79 75l56 26l67 -101h-44z" />
    <glyph glyph-name="uni1EB2" unicode="&#x1eb2;" 
d="M553 256h-319l160 357zM358 705l-319 -705h81l83 185h381l82 -185h85l-319 705h-74zM394 744c59 0 99 34 104 93h-40c-8 -29 -28 -48 -64 -48s-56 19 -64 48h-40c5 -59 45 -93 104 -93zM405 813l-32 9c11 29 36 36 36 58c0 14 -9 23 -23 23s-26 -13 -35 -25l-23 14
c13 25 34 47 70 47c32 0 58 -22 58 -51c0 -35 -32 -43 -51 -75z" />
    <glyph glyph-name="uni1EB3" unicode="&#x1eb3;" horiz-adv-x="579" 
d="M255 51c-69 0 -130 38 -130 103v2c0 63 55 104 151 104c64 0 112 -11 151 -22v-48c0 -83 -77 -139 -172 -139zM240 -11c91 0 150 41 186 88v-77h76v316c0 65 -18 116 -54 152c-38 38 -94 57 -167 57c-76 0 -131 -17 -188 -44l23 -63c48 23 96 37 157 37
c97 0 153 -48 153 -140v-16c-47 13 -91 22 -158 22c-131 0 -221 -58 -221 -169v-2c0 -107 96 -161 193 -161zM289 570c59 0 99 34 104 93h-40c-8 -29 -28 -48 -64 -48s-56 19 -64 48h-40c5 -59 45 -93 104 -93zM303 642l-33 8c9 31 40 41 40 67c0 14 -10 23 -23 23
c-16 0 -26 -12 -35 -25l-24 15c13 25 34 46 69 46c34 0 60 -21 60 -52c0 -39 -38 -50 -54 -82z" />
    <glyph glyph-name="uni1EB4" unicode="&#x1eb4;" 
d="M234 256h319l-159 357zM39 0l319 705h74l319 -705h-85l-82 185h-381l-83 -185h-81zM394 744c-59 0 -99 34 -104 93h40c8 -29 28 -48 64 -48s56 19 64 48h40c-5 -59 -45 -93 -104 -93zM313 854l-33 9c15 53 32 74 67 74c31 0 70 -28 93 -28c19 0 26 9 37 34l33 -9
c-15 -53 -34 -74 -67 -74c-32 0 -69 28 -94 28c-19 0 -25 -9 -36 -34z" />
    <glyph glyph-name="uni1EB5" unicode="&#x1eb5;" horiz-adv-x="579" 
d="M255 51c95 0 172 56 172 139v48c-39 11 -87 22 -151 22c-96 0 -151 -41 -151 -104v-2c0 -65 61 -103 130 -103zM240 -11c-97 0 -193 54 -193 161v2c0 111 90 169 221 169c67 0 111 -9 158 -22v16c0 92 -56 140 -153 140c-61 0 -109 -14 -157 -37l-23 63
c57 27 112 44 188 44c73 0 129 -19 167 -57c36 -36 54 -87 54 -152v-316h-76v77c-36 -47 -95 -88 -186 -88zM289 570c-59 0 -99 34 -104 93h40c8 -29 28 -48 64 -48s56 19 64 48h40c-5 -59 -45 -93 -104 -93zM207 678l-33 9c15 53 32 74 67 74c31 0 70 -28 93 -28
c19 0 26 9 37 34l33 -9c-15 -53 -34 -74 -67 -74c-32 0 -69 28 -94 28c-19 0 -25 -9 -36 -34z" />
    <glyph glyph-name="uni1EB6" unicode="&#x1eb6;" 
d="M234 256h319l-159 357zM39 0l319 705h74l319 -705h-85l-82 185h-381l-83 -185h-81zM369 -95v48h46v-48h-46zM394 744c-59 0 -99 34 -104 93h40c8 -29 28 -48 64 -48s56 19 64 48h40c-5 -59 -45 -93 -104 -93z" />
    <glyph glyph-name="uni1EB7" unicode="&#x1eb7;" horiz-adv-x="579" 
d="M255 51c95 0 172 56 172 139v48c-39 11 -87 22 -151 22c-96 0 -151 -41 -151 -104v-2c0 -65 61 -103 130 -103zM240 -11c-97 0 -193 54 -193 161v2c0 111 90 169 221 169c67 0 111 -9 158 -22v16c0 92 -56 140 -153 140c-61 0 -109 -14 -157 -37l-23 63
c57 27 112 44 188 44c73 0 129 -19 167 -57c36 -36 54 -87 54 -152v-316h-76v77c-36 -47 -95 -88 -186 -88zM265 -95v48h46v-48h-46zM289 570c-59 0 -99 34 -104 93h40c8 -29 28 -48 64 -48s56 19 64 48h40c-5 -59 -45 -93 -104 -93zM289 570c-59 0 -99 34 -104 93h40
c8 -29 28 -48 64 -48s56 19 64 48h40c-5 -59 -45 -93 -104 -93z" />
    <glyph glyph-name="uni1EB8" unicode="&#x1eb8;" horiz-adv-x="670" 
d="M99 0v700h506v-72h-427v-239h382v-72h-382v-245h432v-72h-511zM326 -95v48h46v-48h-46z" />
    <glyph glyph-name="uni1EB9" unicode="&#x1eb9;" horiz-adv-x="592" 
d="M132 289h333c-8 93 -64 174 -165 174c-88 0 -157 -74 -168 -174zM542 227h-410c11 -109 91 -172 182 -172c72 0 120 29 163 73l48 -43c-52 -59 -114 -97 -213 -97c-141 0 -258 109 -258 270c0 150 104 270 248 270c153 0 241 -122 241 -274c0 -7 0 -15 -1 -27zM287 -109
v48h46v-48h-46z" />
    <glyph glyph-name="uni1EBA" unicode="&#x1eba;" horiz-adv-x="670" 
d="M99 700v-700h511v72h-432v245h382v72h-382v239h427v72h-506zM357 736l-32 9c11 29 36 36 36 58c0 14 -9 23 -23 23s-26 -13 -35 -25l-23 14c13 25 34 47 70 47c32 0 58 -22 58 -51c0 -35 -32 -43 -51 -75z" />
    <glyph glyph-name="uni1EBB" unicode="&#x1ebb;" horiz-adv-x="592" 
d="M465 289h-333c11 100 80 174 168 174c101 0 157 -81 165 -174zM132 227h410c1 12 1 20 1 27c0 152 -88 274 -241 274c-144 0 -248 -120 -248 -270c0 -161 117 -270 258 -270c99 0 161 38 213 97l-48 43c-43 -44 -91 -73 -163 -73c-91 0 -171 63 -182 172zM317 567l-33 8
c9 31 40 41 40 67c0 14 -10 23 -23 23c-16 0 -26 -12 -35 -25l-24 15c13 25 34 46 69 46c34 0 60 -21 60 -52c0 -39 -38 -50 -54 -82z" />
    <glyph glyph-name="uni1EBC" unicode="&#x1ebc;" horiz-adv-x="670" 
d="M99 0v700h506v-72h-427v-239h382v-72h-382v-245h432v-72h-511zM253 754l-33 9c15 53 32 74 67 74c31 0 70 -28 93 -28c19 0 26 9 37 34l33 -9c-15 -53 -34 -74 -67 -74c-32 0 -69 28 -94 28c-19 0 -25 -9 -36 -34z" />
    <glyph glyph-name="uni1EBE" unicode="&#x1ebe;" horiz-adv-x="670" 
d="M250 745l74 91h48l74 -91h-46l-53 47l-52 -47h-45zM99 0v700h506v-72h-427v-239h382v-72h-382v-245h432v-72h-511zM419 793l67 101l56 -26l-79 -75h-44z" />
    <glyph glyph-name="uni1EBF" unicode="&#x1ebf;" horiz-adv-x="592" 
d="M201 573l74 91h48l74 -91h-46l-53 47l-52 -47h-45zM132 289h333c-8 93 -64 174 -165 174c-88 0 -157 -74 -168 -174zM542 227h-410c11 -109 91 -172 182 -172c72 0 120 29 163 73l48 -43c-52 -59 -114 -97 -213 -97c-141 0 -258 109 -258 270c0 150 104 270 248 270
c153 0 241 -122 241 -274c0 -7 0 -15 -1 -27zM367 623l67 101l56 -26l-79 -75h-44z" />
    <glyph glyph-name="uni1EBD" unicode="&#x1ebd;" horiz-adv-x="592" 
d="M132 289h333c-8 93 -64 174 -165 174c-88 0 -157 -74 -168 -174zM542 227h-410c11 -109 91 -172 182 -172c72 0 120 29 163 73l48 -43c-52 -59 -114 -97 -213 -97c-141 0 -258 109 -258 270c0 150 104 270 248 270c153 0 241 -122 241 -274c0 -7 0 -15 -1 -27zM214 573
l-33 9c15 53 32 74 67 74c31 0 70 -28 93 -28c19 0 26 9 37 34l33 -9c-15 -53 -34 -74 -67 -74c-32 0 -69 28 -94 28c-19 0 -25 -9 -36 -34z" />
    <glyph glyph-name="uni1EC0" unicode="&#x1ec0;" horiz-adv-x="670" 
d="M250 745l74 91h48l74 -91h-46l-53 47l-52 -47h-45zM99 0v700h506v-72h-427v-239h382v-72h-382v-245h432v-72h-511zM445 792l-79 75l56 26l67 -101h-44z" />
    <glyph glyph-name="uni1EC1" unicode="&#x1ec1;" horiz-adv-x="592" 
d="M201 573l74 91h48l74 -91h-46l-53 47l-52 -47h-45zM132 289h333c-8 93 -64 174 -165 174c-88 0 -157 -74 -168 -174zM542 227h-410c11 -109 91 -172 182 -172c72 0 120 29 163 73l48 -43c-52 -59 -114 -97 -213 -97c-141 0 -258 109 -258 270c0 150 104 270 248 270
c153 0 241 -122 241 -274c0 -7 0 -15 -1 -27zM385 635l-79 75l56 26l67 -101h-44z" />
    <glyph glyph-name="uni1EC2" unicode="&#x1ec2;" horiz-adv-x="670" 
d="M324 836l-74 -91h45l52 47l53 -47h46l-74 91h-48zM99 700v-700h511v72h-432v245h382v72h-382v239h427v72h-506zM450 796l-32 9c11 29 36 36 36 58c0 14 -9 23 -23 23s-26 -13 -35 -25l-23 14c13 25 34 47 70 47c32 0 58 -22 58 -51c0 -35 -32 -43 -51 -75z" />
    <glyph glyph-name="uni1EC3" unicode="&#x1ec3;" horiz-adv-x="592" 
d="M275 664l-74 -91h45l52 47l53 -47h46l-74 91h-48zM465 289h-333c11 100 80 174 168 174c101 0 157 -81 165 -174zM132 227h410c1 12 1 20 1 27c0 152 -88 274 -241 274c-144 0 -248 -120 -248 -270c0 -161 117 -270 258 -270c99 0 161 38 213 97l-48 43
c-43 -44 -91 -73 -163 -73c-91 0 -171 63 -182 172zM404 621l-33 8c9 31 40 41 40 67c0 14 -10 23 -23 23c-16 0 -26 -12 -35 -25l-24 15c13 25 34 46 69 46c34 0 60 -21 60 -52c0 -39 -38 -50 -54 -82z" />
    <glyph glyph-name="uni1EC4" unicode="&#x1ec4;" horiz-adv-x="670" 
d="M250 745l74 91h48l74 -91h-46l-53 47l-52 -47h-45zM99 0v700h506v-72h-427v-239h382v-72h-382v-245h432v-72h-511zM259 842l-33 9c15 53 32 74 67 74c31 0 70 -28 93 -28c19 0 26 9 37 34l33 -9c-15 -53 -34 -74 -67 -74c-32 0 -69 28 -94 28c-19 0 -25 -9 -36 -34z" />
    <glyph glyph-name="uni1EC5" unicode="&#x1ec5;" horiz-adv-x="592" 
d="M201 573l74 91h48l74 -91h-46l-53 47l-52 -47h-45zM132 289h333c-8 93 -64 174 -165 174c-88 0 -157 -74 -168 -174zM542 227h-410c11 -109 91 -172 182 -172c72 0 120 29 163 73l48 -43c-52 -59 -114 -97 -213 -97c-141 0 -258 109 -258 270c0 150 104 270 248 270
c153 0 241 -122 241 -274c0 -7 0 -15 -1 -27zM214 670l-33 9c15 53 32 74 67 74c31 0 70 -28 93 -28c19 0 26 9 37 34l33 -9c-15 -53 -34 -74 -67 -74c-32 0 -69 28 -94 28c-19 0 -25 -9 -36 -34z" />
    <glyph glyph-name="uni1EC6" unicode="&#x1ec6;" horiz-adv-x="670" 
d="M99 0v700h506v-72h-427v-239h382v-72h-382v-245h432v-72h-511zM250 745l74 91h48l74 -91h-46l-53 47l-52 -47h-45zM326 -95v48h46v-48h-46z" />
    <glyph glyph-name="uni1EC7" unicode="&#x1ec7;" horiz-adv-x="592" 
d="M132 289h333c-8 93 -64 174 -165 174c-88 0 -157 -74 -168 -174zM542 227h-410c11 -109 91 -172 182 -172c72 0 120 29 163 73l48 -43c-52 -59 -114 -97 -213 -97c-141 0 -258 109 -258 270c0 150 104 270 248 270c153 0 241 -122 241 -274c0 -7 0 -15 -1 -27zM201 573
l74 91h48l74 -91h-46l-53 47l-52 -47h-45zM277 -112v48h46v-48h-46z" />
    <glyph glyph-name="uni1EC8" unicode="&#x1ec8;" horiz-adv-x="291" 
d="M106 700v-700h79v700h-79zM162 736l-32 9c11 29 36 36 36 58c0 14 -9 23 -23 23s-26 -13 -35 -25l-23 14c13 25 34 47 70 47c32 0 58 -22 58 -51c0 -35 -32 -43 -51 -75z" />
    <glyph glyph-name="uni1EC9" unicode="&#x1ec9;" horiz-adv-x="263" 
d="M93 517v-517h77v517h-77zM147 567l-33 8c9 31 40 41 40 67c0 14 -10 23 -23 23c-16 0 -26 -12 -35 -25l-24 15c13 25 34 46 69 46c34 0 60 -21 60 -52c0 -39 -38 -50 -54 -82z" />
    <glyph glyph-name="uni1ECA" unicode="&#x1eca;" horiz-adv-x="291" 
d="M106 0v700h79v-700h-79zM123 -95v48h46v-48h-46z" />
    <glyph glyph-name="uni1ECB" unicode="&#x1ecb;" horiz-adv-x="263" 
d="M93 0v517h77v-517h-77zM88 630v85h88v-85h-88zM108 -95v48h46v-48h-46z" />
    <glyph glyph-name="uni1ECC" unicode="&#x1ecc;" horiz-adv-x="850" 
d="M426 61c160 0 274 128 274 287v2c0 159 -116 289 -276 289s-274 -128 -274 -287v-2c0 -159 116 -289 276 -289zM424 -12c-213 0 -356 167 -356 360v2c0 193 145 362 358 362s356 -167 356 -360c1 -1 1 -1 0 -2c0 -193 -145 -362 -358 -362zM402 -115v48h46v-48h-46z" />
    <glyph glyph-name="uni1ECD" unicode="&#x1ecd;" horiz-adv-x="646" 
d="M324 57c112 0 190 91 190 199v2c0 111 -83 202 -192 202c-112 0 -189 -91 -189 -200v-2c0 -111 82 -201 191 -201zM322 -12c-155 0 -268 122 -268 268v2c0 147 113 270 270 270c156 0 269 -122 269 -268v-2c0 -147 -115 -270 -271 -270zM296 -115v48h46v-48h-46z" />
    <glyph glyph-name="uni1ECE" unicode="&#x1ece;" horiz-adv-x="850" 
d="M426 61c-160 0 -276 130 -276 289v2c0 159 114 287 274 287s276 -130 276 -289v-2c0 -159 -114 -287 -274 -287zM424 -12c213 0 358 169 358 362c1 1 1 1 0 2c0 193 -143 360 -356 360s-358 -169 -358 -362v-2c0 -193 143 -360 356 -360zM444 736l-32 9
c11 29 36 36 36 58c0 14 -9 23 -23 23s-26 -13 -35 -25l-23 14c13 25 34 47 70 47c32 0 58 -22 58 -51c0 -35 -32 -43 -51 -75z" />
    <glyph glyph-name="uni1ECF" unicode="&#x1ecf;" horiz-adv-x="646" 
d="M324 57c-109 0 -191 90 -191 201v2c0 109 77 200 189 200c109 0 192 -91 192 -202v-2c0 -108 -78 -199 -190 -199zM322 -12c156 0 271 123 271 270v2c0 146 -113 268 -269 268c-157 0 -270 -123 -270 -270v-2c0 -146 113 -268 268 -268zM342 567l-33 8c9 31 40 41 40 67
c0 14 -10 23 -23 23c-16 0 -26 -12 -35 -25l-24 15c13 25 34 46 69 46c34 0 60 -21 60 -52c0 -39 -38 -50 -54 -82z" />
    <glyph glyph-name="uni1ED0" unicode="&#x1ed0;" horiz-adv-x="850" 
d="M327 745l74 91h48l74 -91h-46l-53 47l-52 -47h-45zM426 61c160 0 274 128 274 287v2c0 159 -116 289 -276 289s-274 -128 -274 -287v-2c0 -159 116 -289 276 -289zM424 -12c-213 0 -356 167 -356 360v2c0 193 145 362 358 362s356 -167 356 -360c1 -1 1 -1 0 -2
c0 -193 -145 -362 -358 -362zM494 792l67 101l56 -26l-79 -75h-44z" />
    <glyph glyph-name="uni1ED1" unicode="&#x1ed1;" horiz-adv-x="646" 
d="M225 573l74 91h48l74 -91h-46l-53 47l-52 -47h-45zM324 57c112 0 190 91 190 199v2c0 111 -83 202 -192 202c-112 0 -189 -91 -189 -200v-2c0 -111 82 -201 191 -201zM322 -12c-155 0 -268 122 -268 268v2c0 147 113 270 270 270c156 0 269 -122 269 -268v-2
c0 -147 -115 -270 -271 -270zM393 620l67 101l56 -26l-79 -75h-44z" />
    <glyph glyph-name="uni1ED2" unicode="&#x1ed2;" horiz-adv-x="850" 
d="M327 745l74 91h48l74 -91h-46l-53 47l-52 -47h-45zM426 61c160 0 274 128 274 287v2c0 159 -116 289 -276 289s-274 -128 -274 -287v-2c0 -159 116 -289 276 -289zM424 -12c-213 0 -356 167 -356 360v2c0 193 145 362 358 362s356 -167 356 -360c1 -1 1 -1 0 -2
c0 -193 -145 -362 -358 -362zM516 803l-79 75l56 26l67 -101h-44z" />
    <glyph glyph-name="uni1ED3" unicode="&#x1ed3;" horiz-adv-x="646" 
d="M225 573l74 91h48l74 -91h-46l-53 47l-52 -47h-45zM324 57c112 0 190 91 190 199v2c0 111 -83 202 -192 202c-112 0 -189 -91 -189 -200v-2c0 -111 82 -201 191 -201zM322 -12c-155 0 -268 122 -268 268v2c0 147 113 270 270 270c156 0 269 -122 269 -268v-2
c0 -147 -115 -270 -271 -270zM414 632l-79 75l56 26l67 -101h-44z" />
    <glyph glyph-name="uni1ED4" unicode="&#x1ed4;" horiz-adv-x="850" 
d="M401 836l-74 -91h45l52 47l53 -47h46l-74 91h-48zM426 61c-160 0 -276 130 -276 289v2c0 159 114 287 274 287s276 -130 276 -289v-2c0 -159 -114 -287 -274 -287zM424 -12c213 0 358 169 358 362c1 1 1 1 0 2c0 193 -143 360 -356 360s-358 -169 -358 -362v-2
c0 -193 143 -360 356 -360zM531 792l-32 9c11 29 36 36 36 58c0 14 -9 23 -23 23s-26 -13 -35 -25l-23 14c13 25 34 47 70 47c32 0 58 -22 58 -51c0 -35 -32 -43 -51 -75z" />
    <glyph glyph-name="uni1ED5" unicode="&#x1ed5;" horiz-adv-x="646" 
d="M299 664l-74 -91h45l52 47l53 -47h46l-74 91h-48zM324 57c-109 0 -191 90 -191 201v2c0 109 77 200 189 200c109 0 192 -91 192 -202v-2c0 -108 -78 -199 -190 -199zM322 -12c156 0 271 123 271 270v2c0 146 -113 268 -269 268c-157 0 -270 -123 -270 -270v-2
c0 -146 113 -268 268 -268zM430 621l-33 8c9 31 40 41 40 67c0 14 -10 23 -23 23c-16 0 -26 -12 -35 -25l-24 15c13 25 34 46 69 46c34 0 60 -21 60 -52c0 -39 -38 -50 -54 -82z" />
    <glyph glyph-name="uni1ED6" unicode="&#x1ed6;" horiz-adv-x="850" 
d="M327 745l74 91h48l74 -91h-46l-53 47l-52 -47h-45zM426 61c160 0 274 128 274 287v2c0 159 -116 289 -276 289s-274 -128 -274 -287v-2c0 -159 116 -289 276 -289zM424 -12c-213 0 -356 167 -356 360v2c0 193 145 362 358 362s356 -167 356 -360c1 -1 1 -1 0 -2
c0 -193 -145 -362 -358 -362zM343 841l-33 9c15 53 32 74 67 74c31 0 70 -28 93 -28c19 0 26 9 37 34l33 -9c-15 -53 -34 -74 -67 -74c-32 0 -69 28 -94 28c-19 0 -25 -9 -36 -34z" />
    <glyph glyph-name="uni1ED7" unicode="&#x1ed7;" horiz-adv-x="646" 
d="M225 573l74 91h48l74 -91h-46l-53 47l-52 -47h-45zM324 57c112 0 190 91 190 199v2c0 111 -83 202 -192 202c-112 0 -189 -91 -189 -200v-2c0 -111 82 -201 191 -201zM322 -12c-155 0 -268 122 -268 268v2c0 147 113 270 270 270c156 0 269 -122 269 -268v-2
c0 -147 -115 -270 -271 -270zM241 668l-33 9c15 53 32 74 67 74c31 0 70 -28 93 -28c19 0 26 9 37 34l33 -9c-15 -53 -34 -74 -67 -74c-32 0 -69 28 -94 28c-19 0 -25 -9 -36 -34z" />
    <glyph glyph-name="uni1ED8" unicode="&#x1ed8;" horiz-adv-x="850" 
d="M426 61c160 0 274 128 274 287v2c0 159 -116 289 -276 289s-274 -128 -274 -287v-2c0 -159 116 -289 276 -289zM424 -12c-213 0 -356 167 -356 360v2c0 193 145 362 358 362s356 -167 356 -360c1 -1 1 -1 0 -2c0 -193 -145 -362 -358 -362zM327 745l74 91h48l74 -91h-46
l-53 47l-52 -47h-45zM402 -115v48h46v-48h-46z" />
    <glyph glyph-name="uni1ED9" unicode="&#x1ed9;" horiz-adv-x="646" 
d="M324 57c112 0 190 91 190 199v2c0 111 -83 202 -192 202c-112 0 -189 -91 -189 -200v-2c0 -111 82 -201 191 -201zM322 -12c-155 0 -268 122 -268 268v2c0 147 113 270 270 270c156 0 269 -122 269 -268v-2c0 -147 -115 -270 -271 -270zM225 573l74 91h48l74 -91h-46
l-53 47l-52 -47h-45zM304 -115v48h46v-48h-46z" />
    <glyph glyph-name="uni1EDA" unicode="&#x1eda;" horiz-adv-x="850" 
d="M424 -12c-213 0 -356 167 -356 360v2c0 193 145 362 358 362c53 0 102 -10 145 -29c16 -7 31 -15 45 -23c10 13 14 26 13 41h-25v62h65v-51c0 -29 -9 -52 -26 -71c15 -11 28 -24 41 -37c63 -65 98 -156 98 -252c1 -1 1 -1 0 -2c0 -193 -145 -362 -358 -362zM426 61
c160 0 274 128 274 287v2c0 159 -116 289 -276 289s-274 -128 -274 -287v-2c0 -159 116 -289 276 -289zM400 746l67 101l56 -26l-79 -75h-44z" />
    <glyph glyph-name="uni1EDB" unicode="&#x1edb;" horiz-adv-x="646" 
d="M322 -12c-155 0 -268 122 -268 268v2c0 147 113 270 270 270c39 0 74 -7 107 -22c23 -10 44 -22 62 -37c9 7 25 20 22 49h-25v62h65v-51c0 -29 -8 -51 -23 -68c-5 -5 -10 -9 -15 -13c48 -48 76 -115 76 -188v-2c0 -147 -115 -270 -271 -270zM324 57c112 0 190 91 190 199
v2c0 111 -83 202 -192 202c-112 0 -189 -91 -189 -200v-2c0 -111 82 -201 191 -201zM302 573l67 101l56 -26l-79 -75h-44z" />
    <glyph glyph-name="uni1EDC" unicode="&#x1edc;" horiz-adv-x="850" 
d="M424 -12c-213 0 -356 167 -356 360v2c0 193 145 362 358 362c53 0 102 -10 145 -29c16 -7 31 -15 45 -23c10 13 14 26 13 41h-25v62h65v-51c0 -29 -9 -52 -26 -71c15 -11 28 -24 41 -37c63 -65 98 -156 98 -252c1 -1 1 -1 0 -2c0 -193 -145 -362 -358 -362zM426 61
c160 0 274 128 274 287v2c0 159 -116 289 -276 289s-274 -128 -274 -287v-2c0 -159 116 -289 276 -289zM406 745l-79 75l56 26l67 -101h-44z" />
    <glyph glyph-name="uni1EDD" unicode="&#x1edd;" horiz-adv-x="646" 
d="M322 -12c-155 0 -268 122 -268 268v2c0 147 113 270 270 270c39 0 74 -7 107 -22c23 -10 44 -22 62 -37c9 7 25 20 22 49h-25v62h65v-51c0 -29 -8 -51 -23 -68c-5 -5 -10 -9 -15 -13c48 -48 76 -115 76 -188v-2c0 -147 -115 -270 -271 -270zM324 57c112 0 190 91 190 199
v2c0 111 -83 202 -192 202c-112 0 -189 -91 -189 -200v-2c0 -111 82 -201 191 -201zM303 573l-79 75l56 26l67 -101h-44z" />
    <glyph glyph-name="uni1EDE" unicode="&#x1ede;" horiz-adv-x="850" 
d="M424 -12c213 0 358 169 358 362c1 1 1 1 0 2c0 96 -35 187 -98 252c-13 13 -26 26 -41 37c17 19 26 42 26 71v51h-65v-62h25c1 -15 -3 -28 -13 -41c-14 8 -29 16 -45 23c-43 19 -92 29 -145 29c-213 0 -358 -169 -358 -362v-2c0 -193 143 -360 356 -360zM426 61
c-160 0 -276 130 -276 289v2c0 159 114 287 274 287s276 -130 276 -289v-2c0 -159 -114 -287 -274 -287zM453 736l-32 9c11 29 36 36 36 58c0 14 -9 23 -23 23s-26 -13 -35 -25l-23 14c13 25 34 47 70 47c32 0 58 -22 58 -51c0 -35 -32 -43 -51 -75z" />
    <glyph glyph-name="uni1EDF" unicode="&#x1edf;" horiz-adv-x="646" 
d="M322 -12c156 0 271 123 271 270v2c0 73 -28 140 -76 188c5 4 10 8 15 13c15 17 23 39 23 68v51h-65v-62h25c3 -29 -13 -42 -22 -49c-18 15 -39 27 -62 37c-33 15 -68 22 -107 22c-157 0 -270 -123 -270 -270v-2c0 -146 113 -268 268 -268zM324 57
c-109 0 -191 90 -191 201v2c0 109 77 200 189 200c109 0 192 -91 192 -202v-2c0 -108 -78 -199 -190 -199zM343 567l-33 8c9 31 40 41 40 67c0 14 -10 23 -23 23c-16 0 -26 -12 -35 -25l-24 15c13 25 34 46 69 46c34 0 60 -21 60 -52c0 -39 -38 -50 -54 -82z" />
    <glyph glyph-name="uni1EE0" unicode="&#x1ee0;" horiz-adv-x="850" 
d="M424 -12c-213 0 -356 167 -356 360v2c0 193 145 362 358 362c53 0 102 -10 145 -29c16 -7 31 -15 45 -23c10 13 14 26 13 41h-25v62h65v-51c0 -29 -9 -52 -26 -71c15 -11 28 -24 41 -37c63 -65 98 -156 98 -252c1 -1 1 -1 0 -2c0 -193 -145 -362 -358 -362zM426 61
c160 0 274 128 274 287v2c0 159 -116 289 -276 289s-274 -128 -274 -287v-2c0 -159 116 -289 276 -289zM343 745l-33 9c15 53 32 74 67 74c31 0 70 -28 93 -28c19 0 26 9 37 34l33 -9c-15 -53 -34 -74 -67 -74c-32 0 -69 28 -94 28c-19 0 -25 -9 -36 -34z" />
    <glyph glyph-name="uni1EE1" unicode="&#x1ee1;" horiz-adv-x="646" 
d="M322 -12c-155 0 -268 122 -268 268v2c0 147 113 270 270 270c39 0 74 -7 107 -22c23 -10 44 -22 62 -37c9 7 25 20 22 49h-25v62h65v-51c0 -29 -8 -51 -23 -68c-5 -5 -10 -9 -15 -13c48 -48 76 -115 76 -188v-2c0 -147 -115 -270 -271 -270zM324 57c112 0 190 91 190 199
v2c0 111 -83 202 -192 202c-112 0 -189 -91 -189 -200v-2c0 -111 82 -201 191 -201zM241 573l-33 9c15 53 32 74 67 74c31 0 70 -28 93 -28c19 0 26 9 37 34l33 -9c-15 -53 -34 -74 -67 -74c-32 0 -69 28 -94 28c-19 0 -25 -9 -36 -34z" />
    <glyph glyph-name="uni1EE2" unicode="&#x1ee2;" horiz-adv-x="850" 
d="M424 -12c-213 0 -356 167 -356 360v2c0 193 145 362 358 362c53 0 102 -10 145 -29c16 -7 31 -15 45 -23c10 13 14 26 13 41h-25v62h65v-51c0 -29 -9 -52 -26 -71c15 -11 28 -24 41 -37c63 -65 98 -156 98 -252c1 -1 1 -1 0 -2c0 -193 -145 -362 -358 -362zM426 61
c160 0 274 128 274 287v2c0 159 -116 289 -276 289s-274 -128 -274 -287v-2c0 -159 116 -289 276 -289zM402 -115v48h46v-48h-46z" />
    <glyph glyph-name="uni1EE3" unicode="&#x1ee3;" horiz-adv-x="646" 
d="M322 -12c-155 0 -268 122 -268 268v2c0 147 113 270 270 270c39 0 74 -7 107 -22c23 -10 44 -22 62 -37c9 7 25 20 22 49h-25v62h65v-51c0 -29 -8 -51 -23 -68c-5 -5 -10 -9 -15 -13c48 -48 76 -115 76 -188v-2c0 -147 -115 -270 -271 -270zM324 57c112 0 190 91 190 199
v2c0 111 -83 202 -192 202c-112 0 -189 -91 -189 -200v-2c0 -111 82 -201 191 -201zM295 -115v48h46v-48h-46z" />
    <glyph glyph-name="uni1EE4" unicode="&#x1ee4;" horiz-adv-x="759" 
d="M379 -11c-173 0 -291 106 -291 304v407h79v-402c0 -152 79 -236 214 -236c129 0 211 78 211 231v407h79v-401c0 -205 -117 -310 -292 -310zM354 -115v48h46v-48h-46z" />
    <glyph glyph-name="uni1EE5" unicode="&#x1ee5;" horiz-adv-x="616" 
d="M276 -11c-124 0 -198 84 -198 207v321h77v-302c0 -96 51 -156 143 -156c88 0 155 65 155 162v296h76v-517h-76v90c-35 -56 -88 -101 -177 -101zM270 -115v48h46v-48h-46z" />
    <glyph glyph-name="uni1EE6" unicode="&#x1ee6;" horiz-adv-x="759" 
d="M379 -11c175 0 292 105 292 310v401h-79v-407c0 -153 -82 -231 -211 -231c-135 0 -214 84 -214 236v402h-79v-407c0 -198 118 -304 291 -304zM400 736l-32 9c11 29 36 36 36 58c0 14 -9 23 -23 23s-26 -13 -35 -25l-23 14c13 25 34 47 70 47c32 0 58 -22 58 -51
c0 -35 -32 -43 -51 -75z" />
    <glyph glyph-name="uni1EE7" unicode="&#x1ee7;" horiz-adv-x="616" 
d="M276 -11c89 0 142 45 177 101v-90h76v517h-76v-296c0 -97 -67 -162 -155 -162c-92 0 -143 60 -143 156v302h-77v-321c0 -123 74 -207 198 -207zM324 567l-33 8c9 31 40 41 40 67c0 14 -10 23 -23 23c-16 0 -26 -12 -35 -25l-24 15c13 25 34 46 69 46c34 0 60 -21 60 -52
c0 -39 -38 -50 -54 -82z" />
    <glyph glyph-name="uni1EE8" unicode="&#x1ee8;" horiz-adv-x="759" 
d="M379 -11c-173 0 -291 106 -291 304v407h79v-402c0 -152 79 -236 214 -236c129 0 211 78 211 231v407h79v-61c32 9 50 32 47 61h-25v62h65v-51c0 -57 -31 -90 -87 -98v-314c0 -205 -117 -310 -292 -310zM358 746l67 101l56 -26l-79 -75h-44z" />
    <glyph glyph-name="uni1EE9" unicode="&#x1ee9;" horiz-adv-x="616" 
d="M276 -11c-124 0 -198 84 -198 207v321h77v-302c0 -96 51 -156 143 -156c88 0 155 65 155 162v296h76v-60c15 5 27 13 35 23c9 11 12 23 11 38h-25v62h65v-51c0 -29 -8 -51 -23 -68c-14 -15 -35 -25 -63 -30v-431h-76v90c-35 -56 -88 -101 -177 -101zM272 573l67 101
l56 -26l-79 -75h-44z" />
    <glyph glyph-name="uni1EEA" unicode="&#x1eea;" horiz-adv-x="759" 
d="M379 -11c-173 0 -291 106 -291 304v407h79v-402c0 -152 79 -236 214 -236c129 0 211 78 211 231v407h79v-61c32 9 50 32 47 61h-25v62h65v-51c0 -57 -31 -90 -87 -98v-314c0 -205 -117 -310 -292 -310zM377 745l-79 75l56 26l67 -101h-44z" />
    <glyph glyph-name="uni1EEB" unicode="&#x1eeb;" horiz-adv-x="616" 
d="M276 -11c-124 0 -198 84 -198 207v321h77v-302c0 -96 51 -156 143 -156c88 0 155 65 155 162v296h76v-60c15 5 27 13 35 23c9 11 12 23 11 38h-25v62h65v-51c0 -29 -8 -51 -23 -68c-14 -15 -35 -25 -63 -30v-431h-76v90c-35 -56 -88 -101 -177 -101zM303 573l-79 75
l56 26l67 -101h-44z" />
    <glyph glyph-name="uni1EEC" unicode="&#x1eec;" horiz-adv-x="759" 
d="M379 -11c175 0 292 105 292 310v314c56 8 87 41 87 98v51h-65v-62h25c3 -29 -15 -52 -47 -61v61h-79v-407c0 -153 -82 -231 -211 -231c-135 0 -214 84 -214 236v402h-79v-407c0 -198 118 -304 291 -304zM400 736l-32 9c11 29 36 36 36 58c0 14 -9 23 -23 23
s-26 -13 -35 -25l-23 14c13 25 34 47 70 47c32 0 58 -22 58 -51c0 -35 -32 -43 -51 -75z" />
    <glyph glyph-name="uni1EEE" unicode="&#x1eee;" horiz-adv-x="759" 
d="M379 -11c-173 0 -291 106 -291 304v407h79v-402c0 -152 79 -236 214 -236c129 0 211 78 211 231v407h79v-61c32 9 50 32 47 61h-25v62h65v-51c0 -57 -31 -90 -87 -98v-314c0 -205 -117 -310 -292 -310zM297 745l-33 9c15 53 32 74 67 74c31 0 70 -28 93 -28
c19 0 26 9 37 34l33 -9c-15 -53 -34 -74 -67 -74c-32 0 -69 28 -94 28c-19 0 -25 -9 -36 -34z" />
    <glyph glyph-name="uni1EEF" unicode="&#x1eef;" horiz-adv-x="616" 
d="M276 -11c-124 0 -198 84 -198 207v321h77v-302c0 -96 51 -156 143 -156c88 0 155 65 155 162v296h76v-60c15 5 27 13 35 23c9 11 12 23 11 38h-25v62h65v-51c0 -29 -8 -51 -23 -68c-14 -15 -35 -25 -63 -30v-431h-76v90c-35 -56 -88 -101 -177 -101zM233 567l-33 9
c15 53 32 74 67 74c31 0 70 -28 93 -28c19 0 26 9 37 34l33 -9c-15 -53 -34 -74 -67 -74c-32 0 -69 28 -94 28c-19 0 -25 -9 -36 -34z" />
    <glyph glyph-name="uni1EED" unicode="&#x1eed;" horiz-adv-x="616" 
d="M276 -11c89 0 142 45 177 101v-90h76v431c28 5 49 15 63 30c15 17 23 39 23 68v51h-65v-62h25c1 -15 -2 -27 -11 -38c-8 -10 -20 -18 -35 -23v60h-76v-296c0 -97 -67 -162 -155 -162c-92 0 -143 60 -143 156v302h-77v-321c0 -123 74 -207 198 -207zM324 567l-33 8
c9 31 40 41 40 67c0 14 -10 23 -23 23c-16 0 -26 -12 -35 -25l-24 15c13 25 34 46 69 46c34 0 60 -21 60 -52c0 -39 -38 -50 -54 -82z" />
    <glyph glyph-name="uni1EF0" unicode="&#x1ef0;" horiz-adv-x="759" 
d="M379 -11c-173 0 -291 106 -291 304v407h79v-402c0 -152 79 -236 214 -236c129 0 211 78 211 231v407h79v-61c32 9 50 32 47 61h-25v62h65v-51c0 -57 -31 -90 -87 -98v-314c0 -205 -117 -310 -292 -310zM357 -115v48h46v-48h-46z" />
    <glyph glyph-name="uni1EF1" unicode="&#x1ef1;" horiz-adv-x="616" 
d="M276 -11c-124 0 -198 84 -198 207v321h77v-302c0 -96 51 -156 143 -156c88 0 155 65 155 162v296h76v-60c15 5 27 13 35 23c9 11 12 23 11 38h-25v62h65v-51c0 -29 -8 -51 -23 -68c-14 -15 -35 -25 -63 -30v-431h-76v90c-35 -56 -88 -101 -177 -101zM271 -115v48h46v-48
h-46z" />
    <glyph glyph-name="Ygrave" unicode="&#x1ef2;" horiz-adv-x="716" 
d="M318 0v277l-291 423h96l236 -350l238 350h92l-291 -422v-278h-80zM353 745l-79 75l56 26l67 -101h-44z" />
    <glyph glyph-name="ygrave" unicode="&#x1ef3;" horiz-adv-x="591" 
d="M166 -163c-43 0 -75 9 -110 26l26 61c25 -13 48 -19 81 -19c47 0 75 24 106 97l-235 515h85l188 -431l166 431h82l-217 -534c-44 -107 -95 -146 -172 -146zM303 573l-79 75l56 26l67 -101h-44z" />
    <glyph glyph-name="uni1EF4" unicode="&#x1ef4;" horiz-adv-x="716" 
d="M318 0v277l-291 423h96l236 -350l238 350h92l-291 -422v-278h-80zM332 -95v48h46v-48h-46z" />
    <glyph glyph-name="uni1EF5" unicode="&#x1ef5;" horiz-adv-x="591" 
d="M166 -163c-43 0 -75 9 -110 26l26 61c25 -13 48 -19 81 -19c47 0 75 24 106 97l-235 515h85l188 -431l166 431h82l-217 -534c-44 -107 -95 -146 -172 -146zM378 -95v48h46v-48h-46z" />
    <glyph glyph-name="uni1EF6" unicode="&#x1ef6;" horiz-adv-x="716" 
d="M318 277v-277h80v278l291 422h-92l-238 -350l-236 350h-96zM378 736l-32 9c11 29 36 36 36 58c0 14 -9 23 -23 23s-26 -13 -35 -25l-23 14c13 25 34 47 70 47c32 0 58 -22 58 -51c0 -35 -32 -43 -51 -75z" />
    <glyph glyph-name="uni1EF7" unicode="&#x1ef7;" horiz-adv-x="591" 
d="M166 -163c77 0 128 39 172 146l217 534h-82l-166 -431l-188 431h-85l235 -515c-31 -73 -59 -97 -106 -97c-33 0 -56 6 -81 19l-26 -61c35 -17 67 -26 110 -26zM321 567l-33 8c9 31 40 41 40 67c0 14 -10 23 -23 23c-16 0 -26 -12 -35 -25l-24 15c13 25 34 46 69 46
c34 0 60 -21 60 -52c0 -39 -38 -50 -54 -82z" />
    <glyph glyph-name="uni1EF8" unicode="&#x1ef8;" horiz-adv-x="716" 
d="M318 0v277l-291 423h96l236 -350l238 350h92l-291 -422v-278h-80zM277 745l-33 9c15 53 32 74 67 74c31 0 70 -28 93 -28c19 0 26 9 37 34l33 -9c-15 -53 -34 -74 -67 -74c-32 0 -69 28 -94 28c-19 0 -25 -9 -36 -34z" />
    <glyph glyph-name="uni1EF9" unicode="&#x1ef9;" horiz-adv-x="591" 
d="M166 -163c-43 0 -75 9 -110 26l26 61c25 -13 48 -19 81 -19c47 0 75 24 106 97l-235 515h85l188 -431l166 431h82l-217 -534c-44 -107 -95 -146 -172 -146zM213 573l-33 9c15 53 32 74 67 74c31 0 70 -28 93 -28c19 0 26 9 37 34l33 -9c-15 -53 -34 -74 -67 -74
c-32 0 -69 28 -94 28c-19 0 -25 -9 -36 -34z" />
    <glyph glyph-name="space" unicode=" " horiz-adv-x="300" 
 />
  </font>
</defs>
</svg>
